<svg width="32" height="13" viewBox="0 0 32 13" fill="none" xmlns="http://www.w3.org/2000/svg">
<path d="M0.448005 3.60841L3.9939 3.10243C4.6399 2.7054 5.31092 2.34944 6.00294 2.03743C8.28699 1.00239 10.767 0.468397 13.2749 0.471449H13.891C16.851 0.473402 19.7629 1.21644 22.3629 2.6324L24.152 3.60841C26.247 3.63142 28.3009 4.18843 30.121 5.22645C30.86 5.6504 31.3169 6.43745 31.318 7.28944V10.3884C31.318 10.6774 31.085 10.9104 30.7959 10.9104H29.043C28.4729 12.5374 26.693 13.3934 25.0669 12.8234C24.172 12.5094 23.4679 11.8054 23.1539 10.9104H9.20899C8.63892 12.5374 6.85792 13.3934 5.23194 12.8234C4.33692 12.5094 3.63294 11.8054 3.31995 10.9104H3.13196C3.06592 10.9104 3.00001 10.8985 2.93799 10.8734L1.24695 10.1954C0.49195 9.89644 -0.00206868 9.16542 6.51267e-06 8.35341V4.12544C6.51267e-06 3.86543 0.190924 3.6454 0.448005 3.60841ZM24.053 10.2844C24.2839 11.4144 25.387 12.1424 26.516 11.9124C27.646 11.6814 28.375 10.5784 28.1439 9.44844C27.913 8.31843 26.8099 7.59041 25.6809 7.82045C24.7079 8.01942 24.011 8.8744 24.011 9.86744C24.011 10.0074 24.0249 10.1474 24.053 10.2844ZM14.615 9.86744H22.9669C22.9669 8.1374 24.3689 6.73543 26.099 6.73543C27.828 6.73543 29.23 8.1374 29.23 9.86744H30.2739V7.28944C30.2739 6.81141 30.017 6.3694 29.6019 6.1324C27.8989 5.15944 25.9719 4.64845 24.011 4.64741H14.615V9.86744ZM14.615 3.60341H21.964L21.8629 3.54841C19.631 2.3354 17.153 1.64845 14.615 1.5384V3.60341ZM13.5709 1.51539H13.276C11.173 1.51344 9.0879 1.91243 7.13392 2.6924L8.04591 3.60341H13.5709V1.51539ZM4.2179 10.2844C4.44898 11.4144 5.55201 12.1424 6.68189 11.9124C7.8119 11.6814 8.53992 10.5784 8.30994 9.44844C8.07899 8.31843 6.97596 7.59041 5.84595 7.82045C4.87391 8.01942 4.17591 8.8744 4.17591 9.86744C4.17591 10.0074 4.18995 10.1474 4.2179 10.2844ZM1.04395 5.16945H2.60999V6.21345H1.04395V8.35341C1.04298 8.73744 1.27698 9.08442 1.63489 9.22542L3.13196 9.82643C3.13196 9.77839 3.13795 9.7314 3.14197 9.68342C3.1449 9.63545 3.146 9.57844 3.15101 9.52644C3.15601 9.47444 3.167 9.42244 3.17493 9.37044C3.18299 9.3174 3.18995 9.26539 3.19996 9.2184C3.20997 9.17042 3.22596 9.11744 3.2389 9.06843C3.25294 9.01845 3.26295 8.9684 3.27894 8.91945C3.29395 8.87141 3.31299 8.82545 3.33094 8.77742C3.34901 8.73042 3.365 8.68141 3.38294 8.63344C3.40198 8.58644 3.42591 8.54445 3.448 8.4994C3.46998 8.4554 3.49097 8.40645 3.516 8.36244C3.53992 8.3174 3.568 8.27943 3.59193 8.23744C3.615 8.19545 3.64393 8.14741 3.67298 8.10542C3.70301 8.06245 3.73096 8.02839 3.75989 7.98939C3.78797 7.95143 3.82093 7.90541 3.85401 7.86543C3.88697 7.82545 3.91895 7.79445 3.95093 7.76143C3.98292 7.72841 4.0199 7.6844 4.05494 7.64741C4.09193 7.6114 4.12696 7.58241 4.16297 7.54945C4.19898 7.51741 4.23792 7.47944 4.27698 7.44545C4.3169 7.41145 4.35694 7.38545 4.39698 7.35542C4.43592 7.32643 4.47596 7.29445 4.51795 7.26643C4.55994 7.23842 4.60694 7.21443 4.65101 7.1844C4.69593 7.15541 4.73292 7.1324 4.77491 7.11043C4.8169 7.08742 4.87 7.0644 4.91798 7.04139C4.96595 7.01845 5.00391 6.99843 5.04798 6.97944C5.0929 6.9604 5.15296 6.94044 5.20496 6.92244C5.25696 6.90339 5.2909 6.88844 5.33497 6.8744C5.3949 6.8564 5.45594 6.8434 5.516 6.82741C5.55591 6.81843 5.594 6.80641 5.63392 6.79744C5.698 6.78444 5.76392 6.77742 5.82996 6.76741C5.86793 6.7624 5.90491 6.75441 5.94398 6.75044C6.04798 6.74043 6.15296 6.73445 6.26197 6.73445C7.99097 6.7364 9.39197 8.1374 9.39393 9.86641H13.5709V4.64741H7.82996C7.69092 4.64741 7.55897 4.59242 7.46094 4.4944L6.10694 3.14039C5.53895 3.41145 4.98695 3.71345 4.45301 4.04542C4.391 4.08442 4.32191 4.10945 4.25001 4.12044L1.04395 4.57741V5.16945Z" fill="#F9AC19"/>
</svg>
