<svg width="177" height="146" viewBox="0 0 177 146" fill="none" xmlns="http://www.w3.org/2000/svg">
<path d="M23.4104 76.4799H11.6113C10.8865 76.4799 10.1765 75.9189 10.0154 75.2059L8.10837 66.7099C7.95335 66.0019 8.4094 65.4299 9.12839 65.4299H23.4104C24.1313 65.4299 24.7163 66.0219 24.7163 66.7409V75.1689C24.7163 75.8989 24.1313 76.4799 23.4104 76.4799Z" fill="#DE9509"/>
<path d="M29.1962 77.8209C29.6572 78.2879 29.6572 79.0329 29.1962 79.5019C28.7321 79.9659 27.9811 79.9659 27.517 79.5019L22.3161 74.2949C21.8491 73.8309 21.8491 73.0859 22.3161 72.6159C22.7741 72.1579 23.5212 72.1579 23.985 72.6159L29.1962 77.8209Z" fill="#DE9509"/>
<path d="M161.03 76.4799H172.826C173.553 76.4799 174.266 75.9189 174.421 75.2059L176.332 66.7099C176.486 66.0019 176.028 65.4299 175.306 65.4299H161.03C160.308 65.4299 159.721 66.0219 159.721 66.7409V75.1689C159.721 75.8989 160.308 76.4799 161.03 76.4799Z" fill="#DE9509"/>
<path d="M155.244 77.8209C154.779 78.2879 154.779 79.0329 155.244 79.5019C155.702 79.9659 156.458 79.9659 156.919 79.5019L162.124 74.2949C162.585 73.8309 162.585 73.0859 162.124 72.6159C161.66 72.1579 160.91 72.1579 160.451 72.6159L155.244 77.8209Z" fill="#DE9509"/>
<path d="M49.1731 113.377V136.454C49.1182 141.495 45.0681 145.583 40.0122 145.66H32.3301C27.1973 145.66 23.0371 141.495 23.0371 136.356V113.377C23.0371 108.247 27.1973 104.074 32.3301 104.074H39.8752C45.0142 104.074 49.1731 108.247 49.1731 113.377Z" fill="#26252E"/>
<rect x="37.4146" y="126.514" width="1.42642" height="19.1462" fill="#26252E"/>
<rect x="33.3613" y="126.514" width="1.43519" height="19.1462" fill="#26252E"/>
<path d="M49.1729 128.066V130.14L38.8408 140.524L38.2363 141.134V139.06L38.8408 138.453L49.1729 128.066Z" fill="#26252E"/>
<path d="M49.1729 134.362V136.454L40.0125 145.66H38.2363V145.365L38.8408 144.766L49.1729 134.362Z" fill="#26252E"/>
<path d="M49.1729 121.75V123.838L38.8408 134.219L38.2363 134.826V132.747L38.8408 132.148L49.1729 121.75Z" fill="#26252E"/>
<path d="M23.0376 128.066V130.14L33.3611 140.524L33.9683 141.134V139.06L33.3611 138.453L23.0376 128.066Z" fill="#26252E"/>
<path d="M23.0376 134.362V136.454L32.198 145.66H33.9683V145.365L33.3611 144.766L23.0376 134.362Z" fill="#26252E"/>
<path d="M23.0376 121.75V123.838L33.3611 134.219L33.9683 134.826V132.747L33.3611 132.148L23.0376 121.75Z" fill="#26252E"/>
<path d="M161.422 113.377V136.454C161.374 141.495 157.312 145.583 152.264 145.66H144.579C139.443 145.66 135.284 141.495 135.284 136.356V113.377C135.284 108.247 139.443 104.074 144.579 104.074H152.127C157.266 104.074 161.422 108.247 161.422 113.377Z" fill="#26252E"/>
<rect x="149.658" y="126.514" width="1.43199" height="19.1462" fill="#26252E"/>
<rect x="145.61" y="126.514" width="1.43492" height="19.1462" fill="#26252E"/>
<path d="M161.423 128.066V130.14L151.091 140.524L150.489 141.134V139.06L151.091 138.453L161.423 128.066Z" fill="#26252E"/>
<path d="M161.423 134.362V136.454L152.265 145.66H150.489V145.365L151.091 144.766L161.423 134.362Z" fill="#26252E"/>
<path d="M161.423 121.75V123.838L151.091 134.219L150.489 134.826V132.747L151.091 132.148L161.423 121.75Z" fill="#26252E"/>
<path d="M135.284 128.066V130.14L145.61 140.524L146.215 141.134V139.06L145.61 138.453L135.284 128.066Z" fill="#26252E"/>
<path d="M135.284 134.362V136.454L144.448 145.66H146.215V145.365L145.61 144.766L135.284 134.362Z" fill="#26252E"/>
<path d="M135.284 121.75V123.838L145.61 134.219L146.215 134.826V132.747L145.61 132.148L135.284 121.75Z" fill="#26252E"/>
<path d="M166.329 89.9379V106.795V118.224C166.289 123.412 162.095 127.998 156.928 128.468C117.825 131.596 78.6423 131.882 39.5254 129.341C35.5264 129.08 31.5315 128.791 27.5354 128.468C24.5505 128.193 21.8975 126.557 20.1794 124.228C18.9075 122.504 18.1423 120.418 18.1284 118.224V106.795V89.9379C18.1514 87.2079 19.3254 84.6359 21.1814 82.7569C21.5195 82.4069 21.8804 82.0859 22.2585 81.7939C23.3525 80.9489 24.6184 80.3099 25.9795 79.9579C26.4834 79.8259 27.0024 79.7369 27.5354 79.6829C70.6274 76.2479 113.826 76.2429 156.928 79.6829C159.483 79.9239 161.792 81.1579 163.482 82.9739C165.226 84.8359 166.309 87.3049 166.329 89.9379Z" fill="#F9AC19"/>
<path d="M163.883 97.1019V113.418V124.454C163.84 129.476 159.787 133.898 154.791 134.363C116.98 137.385 79.0952 137.66 41.2671 135.21C37.4001 134.959 33.5332 134.672 29.6682 134.363C26.7903 134.099 24.2231 132.515 22.5562 130.258C21.3242 128.599 20.5881 126.577 20.5742 124.454V113.418V97.1019C20.5972 94.4609 21.7371 91.9799 23.5303 90.1609C23.8572 89.8259 24.2002 89.5189 24.5671 89.2359C25.6272 88.4169 26.8501 87.7979 28.1711 87.4489C28.6572 87.3279 29.1562 87.2419 29.6682 87.1909C71.3491 83.8649 113.11 83.8649 154.791 87.1909C157.26 87.4199 159.492 88.6139 161.133 90.3699C162.817 92.1719 163.86 94.5639 163.883 97.1019Z" fill="#DE9509"/>
<path d="M159.219 78.1159C155.41 68.2939 152.15 58.2769 149.036 48.2219C146.576 41.9379 140.606 35.4409 133.743 34.1549C105.964 30.0559 78.2012 30.0729 50.4221 34.1949C43.5701 35.4899 37.6172 41.9889 35.1882 48.2739C32.1411 58.3029 28.9551 68.3079 25.2432 78.1159C69.5103 89.0869 114.946 89.0929 159.219 78.1159Z" fill="#F9AC19"/>
<path d="M27.4268 76.4749C27.4268 76.4749 33.9807 57.263 36.4778 49.0359C38.5886 43.657 43.8596 37.6499 49.9126 36.481C63.6558 34.4449 77.5857 33.4079 91.3267 33.4079C104.973 33.4079 118.806 34.433 132.461 36.4379C138.513 37.595 143.813 43.6109 145.949 48.987C148.505 57.2569 155.21 76.4799 155.21 76.4799L27.4268 76.4749Z" fill="#26252E"/>
<path d="M100.046 41.0759C100.046 42.6199 98.7974 43.8629 97.2615 43.8629H85.3684C83.8274 43.8629 82.5864 42.6199 82.5864 41.0759C82.5864 39.5379 83.8274 38.2939 85.3684 38.2939H97.2615C98.7974 38.2939 100.046 39.5379 100.046 41.0759Z" fill="#1C1C1F"/>
<path d="M76.1213 76.4429V58.4799C76.1213 54.6449 73.0054 51.5279 69.1665 51.5279H51.5593C47.7205 51.5279 44.6045 54.6449 44.6045 58.4799V76.4429H76.1213Z" fill="#1C1C1F"/>
<path d="M138.029 76.4429V58.4799C138.029 54.6449 134.919 51.5279 131.074 51.5279H113.469C109.628 51.5279 106.512 54.6449 106.512 58.4799V76.4429H138.029Z" fill="#1C1C1F"/>
<path d="M164.127 83.8077L159.208 78.1159H25.4612L20.3281 83.8077H164.127Z" fill="#F9AC19"/>
<path d="M110.054 135.053H74.3804C73.4204 135.053 72.6445 134.277 72.6445 133.309V128.41C72.6445 127.454 73.4204 126.674 74.3804 126.674H110.054C111.013 126.674 111.796 127.454 111.796 128.41V133.309C111.796 134.277 111.013 135.053 110.054 135.053Z" fill="#26252E"/>
<path d="M156.81 81.0949L141.981 93.4059C140.726 94.7329 138.234 95.8179 136.404 95.8179H48.1074C46.2743 95.8179 43.7824 94.7329 42.5334 93.4009L27.6432 81.0949C26.3974 79.7569 26.8674 78.6719 28.6984 78.6719H155.759C157.592 78.6719 158.062 79.7569 156.81 81.0949Z" fill="#FFBF46"/>
<g style="mix-blend-mode:screen" opacity="0.3">
<path d="M92.2339 33.4079C90.2888 33.4079 88.333 33.431 86.3879 33.476L33.6819 60.545C33.2 61.983 32.719 63.427 32.249 64.825L93.417 33.4129C93.0249 33.4129 92.627 33.4079 92.2339 33.4079Z" fill="#242130"/>
<path d="M96.7283 33.448L31.5562 66.9189C29.7693 72.2549 28.3252 76.4749 28.3252 76.4749H33.4761L115.448 34.3819C109.203 33.86 102.944 33.554 96.7283 33.448Z" fill="#242130"/>
<path d="M150.087 58.9099L115.88 76.4799H124.388L151.348 62.6369C150.93 61.396 150.503 60.147 150.087 58.9099Z" fill="#242130"/>
</g>
<rect x="30.54" y="120.003" width="20.5011" height="6.87749" fill="#DE9509"/>
<rect x="133.423" y="120.003" width="20.4893" height="6.87749" fill="#DE9509"/>
<path d="M41.1213 105.666V108.557C41.1213 111.61 38.6433 114.085 35.5955 114.085H21.4165C18.3623 114.085 15.8823 111.61 15.8823 108.557V98.4649C15.8823 95.4059 18.3623 92.9309 21.4165 92.9309H26.2065C27.8674 92.9309 30.2505 93.7869 31.5334 94.8469L38.8035 100.854C40.0845 101.914 41.1213 104.068 41.1213 105.666Z" fill="#DE9509"/>
<path d="M21.4167 112.435C19.2798 112.435 17.5386 110.691 17.5386 108.557V98.4649C17.5386 96.3279 19.2798 94.5809 21.4167 94.5809H26.2068C27.4897 94.5809 29.4888 95.3029 30.4797 96.1219L37.7466 102.137C38.6497 102.877 39.4656 104.563 39.4656 105.666V108.557C39.4656 110.691 37.7266 112.435 35.5957 112.435H21.4167Z" fill="#E0E0E0"/>
<path d="M143.339 105.666V108.557C143.339 111.61 145.808 114.085 148.865 114.085H163.042C166.1 114.085 168.569 111.61 168.569 108.557V98.4649C168.569 95.4059 166.1 92.9309 163.042 92.9309H158.25C156.587 92.9309 154.208 93.7869 152.923 94.8469L145.659 100.854C144.376 101.914 143.339 104.068 143.339 105.666Z" fill="#DE9509"/>
<path d="M148.865 112.435C146.737 112.435 144.99 110.691 144.99 108.557V105.666C144.99 104.563 145.809 102.877 146.709 102.137L153.978 96.1219C154.97 95.3029 156.969 94.5809 158.25 94.5809H163.042C165.179 94.5809 166.915 96.3279 166.915 98.4649V108.557C166.915 110.691 165.179 112.435 163.042 112.435H148.865Z" fill="#E0E0E0"/>
<path d="M130.653 114.795C130.547 118.705 127.58 122.094 123.736 122.75C102.69 125.288 81.7656 125.288 60.7288 122.75C56.8787 122.094 53.9058 118.705 53.8027 114.795V108.961C53.9058 105.048 56.8787 101.662 60.7288 101.009C81.7656 98.4739 102.693 98.4739 123.736 101.009C127.58 101.662 130.547 105.048 130.653 108.961V114.795Z" fill="#CCCCCC"/>
<path d="M92.4006 122.335C82.0806 122.335 71.5967 121.702 61.2356 120.453C58.4998 119.96 56.3857 117.528 56.2886 114.767V108.992C56.3857 106.228 58.4998 103.79 61.2356 103.298C71.5906 102.051 82.0686 101.427 92.3958 101.427C102.713 101.427 113.203 102.051 123.566 103.298C126.302 103.79 128.422 106.228 128.508 108.992V114.767C128.422 117.528 126.302 119.96 123.566 120.453C113.206 121.702 102.722 122.335 92.4006 122.335Z" fill="#26252E"/>
<path d="M126.673 106.91C126.673 107.697 126.038 108.336 125.247 108.336H59.2102C58.4282 108.336 57.7891 107.697 57.7891 106.91C57.7891 106.125 58.4282 105.483 59.2102 105.483H125.247C126.038 105.483 126.673 106.125 126.673 106.91Z" fill="#1C1C1F"/>
<path d="M126.673 111.774C126.673 112.558 126.038 113.194 125.247 113.194H59.2102C58.4282 113.194 57.7891 112.558 57.7891 111.774C57.7891 110.986 58.4282 110.35 59.2102 110.35H125.247C126.038 110.35 126.673 110.986 126.673 111.774Z" fill="#1C1C1F"/>
<path d="M126.673 116.846C126.673 117.629 126.038 118.267 125.247 118.267H59.2102C58.4282 118.267 57.7891 117.629 57.7891 116.846C57.7891 116.062 58.4282 115.423 59.2102 115.423H125.247C126.038 115.423 126.673 116.062 126.673 116.846Z" fill="#1C1C1F"/>
<path d="M26.8015 100.989C26.8015 103.068 25.1204 104.756 23.0374 104.756C20.9585 104.756 19.2715 103.068 19.2715 100.989C19.2715 98.9059 20.9585 97.2219 23.0374 97.2219C25.1204 97.2219 26.8015 98.9059 26.8015 100.989Z" fill="white"/>
<path d="M161.276 100.989C161.276 103.068 159.589 104.756 157.506 104.756C155.43 104.756 153.743 103.068 153.743 100.989C153.743 98.9059 155.43 97.2219 157.506 97.2219C159.589 97.2219 161.276 98.9059 161.276 100.989Z" fill="white"/>
<rect x="89.7109" y="33.4076" width="3.21653" height="7.91438" fill="#1C1C1F"/>
<rect x="32.3701" y="115.423" width="14.8438" height="6.91181" fill="#E0E0E0"/>
<rect x="137.238" y="115.423" width="14.8435" height="6.91181" fill="#E0E0E0"/>
<path d="M30.5396 121.75C30.5396 119.691 28.8647 118.012 26.8018 118.012C24.7336 118.012 23.0605 119.691 23.0605 121.75C23.0605 123.821 24.7336 125.497 26.8018 125.497C28.8647 125.497 30.5396 123.821 30.5396 121.75Z" fill="#E0E0E0"/>
<path d="M161.248 121.75C161.248 119.691 159.576 118.012 157.507 118.012C155.445 118.012 153.769 119.691 153.769 121.75C153.769 123.821 155.445 125.497 157.507 125.497C159.576 125.497 161.248 123.821 161.248 121.75Z" fill="#E0E0E0"/>
<path d="M95.3994 94.5809C95.3994 93.6189 93.5725 92.8419 91.3203 92.8419C89.0603 92.8419 87.2334 93.6189 87.2334 94.5809C87.2334 95.5489 89.0603 96.3279 91.3203 96.3279C93.5725 96.3279 95.3994 95.5489 95.3994 94.5809Z" fill="white"/>
<path d="M7.06152 0.339935C7.13062 0.620934 7.23853 1.12193 7.29663 1.27393C7.18774 0.975937 7.11865 0.660934 7.06152 0.339935Z" fill="#2B1E16"/>
<path d="M3.52661 67.4429C3.52661 66.6409 2.87671 65.9909 2.08276 65.9909C1.28662 65.9909 0.636719 66.6409 0.636719 67.4429C0.636719 68.2449 1.28662 68.8869 2.08276 68.8869C2.87671 68.8869 3.52661 68.2449 3.52661 67.4429Z" fill="white"/>
</svg>
