<svg width="291" height="174" viewBox="0 0 291 174" fill="none" xmlns="http://www.w3.org/2000/svg">
<path d="M212.042 50.2969L213.767 44.7749C217.261 45.6889 230.306 48.4549 230.541 48.5869L234.29 51.7099C234.474 53.2909 234.849 55.7249 233.706 56.8229C231.566 58.8759 216.087 53.1359 212.042 50.2969Z" fill="#FFC89F"/>
<path d="M239.186 53.6169C238.112 52.4739 237.613 51.0279 237.232 49.5299C236.888 48.1399 236.396 46.9999 235.588 45.8139C235.365 45.4819 235.17 45.1329 235.006 44.7749C232.792 46.1869 230.048 47.6849 226.507 49.2579C225.362 49.7679 227.132 55.6509 227.665 55.7569C229.515 56.1059 231.646 57.3979 232.956 57.1689C235.35 56.7479 235.771 56.3039 239.335 54.5509C239.518 54.4589 239.656 54.3099 239.776 54.1329C239.564 53.9779 239.355 53.8009 239.186 53.6169Z" fill="#FFC89F"/>
<path d="M260.795 167.405C261.145 166.626 261.173 165.686 261.107 164.753C260.778 163.384 260.028 162.53 259.271 161.39C258.979 160.966 258.744 160.571 258.229 160.41C258.171 160.399 258.114 160.37 258.06 160.347C257.934 160.333 257.799 160.318 257.679 160.313C256.395 160.25 255.106 160.327 253.883 160.691C252.385 161.155 252.253 160.754 250.83 161.43C250.357 161.665 246.55 165.028 246.192 165.326C245.579 165.807 244.975 166.277 244.376 166.752C243.382 167.459 242.334 168.092 241.434 168.889C240.157 170.015 238.828 172.06 241.082 172.865C241.472 173.002 241.884 173.071 242.305 173.082C244.239 173.312 246.564 172.704 248.175 172.326C250.409 171.799 252.193 170.533 253.995 169.27C255.825 167.58 260.056 169.075 260.795 167.405Z" fill="#1C1C1F"/>
<path d="M277.704 167.405C278.051 166.626 278.085 165.686 278.01 164.753C277.678 163.384 276.933 162.53 276.172 161.39C275.891 160.966 275.645 160.571 275.135 160.41C275.072 160.399 275.02 160.37 274.968 160.347C274.837 160.333 274.711 160.318 274.579 160.313C273.296 160.25 272.012 160.327 270.789 160.691C269.285 161.155 269.16 160.754 267.736 161.43C267.263 161.665 263.462 165.028 263.095 165.326C262.494 165.807 261.881 166.277 261.285 166.752C260.297 167.459 259.24 168.092 258.337 168.889C257.06 170.015 255.737 172.06 257.994 172.865C258.378 173.002 258.79 173.071 259.208 173.082C261.145 173.312 263.476 172.704 265.08 172.326C267.32 171.799 269.105 170.533 270.895 169.27C272.731 167.58 276.959 169.075 277.704 167.405Z" fill="#1C1C1F"/>
<path d="M249.167 94.447L244.351 125.658L247.477 164.002L261.781 164.163L258.685 125.635C258.685 125.635 260.606 117.73 261.566 114.032C262.352 110.995 263.05 107.947 263.437 104.834C263.7 102.783 264.987 96.063 267.406 94.447H249.167Z" fill="#17283D"/>
<path d="M260.686 94.258C262.142 99.847 260.87 127.95 260.87 127.95L262.872 164.303L277.369 164.163L278.016 125.721C278.016 125.721 280.107 108.283 280.812 94.447C280.812 94.447 260.615 93.989 260.686 94.258Z" fill="#17283D"/>
<path d="M260.686 94.258C260.698 94.321 260.715 94.379 260.729 94.447H249.166L248.678 98.664C248.678 98.664 269.798 98.412 271.961 102.009C274.118 106.154 274.774 150.23 274.585 153.301C274.39 156.32 273.571 159.654 271.153 161.682C270.196 162.492 268.922 163.074 267.67 163.252C266.885 163.369 265.338 163.343 265.155 164.277L277.369 164.163L278.016 125.721C278.016 125.721 280.107 108.283 280.812 94.447C280.812 94.447 260.615 93.989 260.686 94.258Z" fill="#15202E"/>
<path d="M289.727 60.5608L290.191 76.0059L288.033 98.0794L282.789 95.7936L282.663 75.2468L279.403 62.1019L289.727 60.5608Z" fill="#FFC89F"/>
<path d="M283.648 102.614L283.734 100.823C283.734 100.823 283.706 100.692 283.663 100.468C283.688 100.219 283.688 99.944 283.663 99.66C283.913 99.649 284.169 99.563 284.434 99.397C284.948 99.073 285.315 98.544 285.717 98.2C285.825 98.108 285.915 97.994 286.018 97.885C286.128 97.827 286.227 97.753 286.312 97.667C286.627 98.145 286.936 98.644 287.226 99.151C287.31 99.288 287.389 99.449 287.481 99.592L286.741 100.537C286.592 101.78 286.295 104.576 286.295 104.576L284.746 107.077C284.746 107.077 284.142 109.394 283.636 109.563C283.533 109.6 283.293 109.52 283.081 109.199C282.794 108.747 282.562 107.939 282.778 107.423C283.003 106.862 283.556 105.55 283.556 105.55L283.648 102.614Z" fill="#D4A47D"/>
<path d="M281.379 105.215C280.995 105.229 280.583 104.857 280.557 104.181C280.531 103.688 280.52 102.846 280.52 102.846L280.471 100.841C280.683 100.506 282.416 95.5791 282.416 95.5791L283.487 93.3821L286.733 93.8171C286.69 93.8801 286.965 98.2231 285.742 98.8901C284.467 99.5861 282.37 101.706 282.37 101.706C282.37 101.706 282.256 103.041 282.256 103.453C282.259 104.848 281.809 105.2 281.379 105.215Z" fill="#FFC89F"/>
<path d="M285.349 93.823L286.355 94.642L287.606 95.977L289.17 102.147L286.805 106.959C286.805 106.959 283.992 109.371 283.992 109.38C283.777 109.612 283.439 109.626 283.224 109.417C283.009 109.214 283.009 108.867 283.224 108.649C283.23 108.641 285.951 104.628 285.951 104.628C285.951 104.628 286.799 99.065 284.682 99.621C283.407 99.964 285.378 93.909 285.349 93.823Z" fill="#FFC89F"/>
<path d="M274.682 32.976C274.29 32.661 273.917 32.334 273.525 32.013C273.37 31.888 272.434 31.197 273.052 31.641C272.273 31.08 271.362 30.129 271.044 29.218C270.995 29.078 268.435 27.791 268.048 27.539V20.676H258.1V29.078C257.278 29.596 251.85 31.332 249.549 31.942C249.452 32.231 255.244 31.595 255.972 32.071C256.45 32.38 256.831 32.907 256.796 33.503C256.791 33.535 256.791 33.557 256.791 33.583C256.785 33.669 256.773 33.744 256.759 33.827C257.696 34.205 258.55 34.72 259.24 35.405C259.775 35.245 261.838 42.205 262.353 42.099C263.995 41.744 264.141 34.474 265.808 34.689C266.805 34.821 267.807 34.972 268.804 35.113C268.5 35.064 269.446 35.176 269.486 35.176C269.864 35.204 270.231 35.239 270.603 35.233C270.784 35.225 270.97 35.219 271.147 35.204C271.268 35.182 271.566 35.136 271.66 35.101C271.806 35.05 272.288 34.861 272.176 34.93C272.288 34.867 272.399 34.809 272.505 34.746C272.746 34.597 272.975 34.448 273.204 34.285C273.321 34.185 273.576 33.979 273.628 33.93C273.972 33.623 274.324 33.32 274.662 32.999C274.542 32.896 274.504 32.85 274.676 32.976H274.682Z" fill="#D4A47D"/>
<g style="mix-blend-mode:multiply" opacity="0.3">
<path d="M274.677 32.976H274.682C274.291 32.661 273.917 32.334 273.525 32.013C273.371 31.888 272.435 31.197 273.052 31.641C272.273 31.08 271.363 30.129 271.044 29.218C270.996 29.078 268.436 27.791 268.049 27.539V20.676H258.101V28.754C263.462 30.77 268.833 33.907 274.41 33.222C274.49 33.148 274.58 33.073 274.663 32.999C274.542 32.896 274.504 32.85 274.677 32.976Z" fill="#A88F7B"/>
</g>
<path d="M277.856 66.3098C278.669 75.4498 280.852 94.4529 280.852 94.4529H247.352C247.352 94.4529 247.358 94.4018 247.367 94.2948V94.2009V94.1749C247.372 94.1409 247.372 94.1118 247.378 94.0748C247.378 93.9659 247.384 93.8428 247.39 93.6908C247.395 93.6279 247.401 93.5508 247.401 93.4678V93.4558C247.407 93.3988 247.412 93.3409 247.412 93.2789C247.412 93.2439 247.418 93.2038 247.418 93.1638C247.424 93.0779 247.43 92.9868 247.43 92.8889C247.43 92.8598 247.435 92.8199 247.435 92.7858C247.441 92.6798 247.45 92.5678 247.455 92.4478C247.464 92.3389 247.47 92.2238 247.476 92.1039C247.481 92.0638 247.481 92.0179 247.481 91.9608C247.487 91.9148 247.487 91.8629 247.493 91.8148C247.507 91.5658 247.513 91.2908 247.533 90.9978C247.533 90.9178 247.539 90.8438 247.544 90.7578C247.55 90.6978 247.55 90.6259 247.556 90.5518V90.5089C247.561 90.3799 247.57 90.2538 247.581 90.1218C247.581 89.9868 247.596 89.8528 247.601 89.7178C248.194 78.3089 249.653 50.1048 249.692 48.1398L239.713 55.8738L231.194 45.0808L249.549 31.9418C249.549 31.9418 251.706 30.9818 255.92 29.9278C256.006 29.7508 257.467 32.9468 257.756 33.3478C258.956 34.9978 261.191 35.3218 263.018 34.5629C264.298 34.0188 265.387 33.1158 266.226 32.0188H266.232C266.667 31.4628 267.025 30.8618 267.32 30.2258C267.67 29.4838 268.28 28.5499 268.415 27.7508V27.7458C268.455 27.7908 283.046 34.0328 283.605 34.6889C286.392 37.9768 290.5 61.9238 290.5 61.9238L279.271 65.2348L276.487 50.3058C276.538 52.4968 277.38 61.0448 277.856 66.3098Z" fill="white"/>
<path d="M277.856 66.3098C278.669 75.4498 280.853 94.4529 280.853 94.4529H247.353C247.353 94.4529 247.358 94.4018 247.367 94.2948V94.2009V94.1749C247.373 94.1409 247.373 94.1118 247.378 94.0748C247.378 93.9659 247.385 93.8428 247.39 93.6908C247.396 93.6279 247.401 93.5508 247.401 93.4678V93.4558C247.407 93.3988 247.413 93.3409 247.413 93.2789C247.413 93.2439 247.418 93.2038 247.418 93.1638C247.425 93.0779 247.43 92.9868 247.43 92.8889C247.43 92.8598 247.436 92.8199 247.436 92.7858C247.441 92.6798 247.45 92.5678 247.456 92.4478C247.465 92.3389 247.47 92.2238 247.477 92.1039C247.481 92.0638 247.481 92.0179 247.481 91.9608C247.488 91.9148 247.488 91.8629 247.493 91.8148C247.508 91.5658 247.519 91.2908 247.533 90.9978C247.533 90.9178 247.54 90.8438 247.544 90.7578C247.551 90.6978 247.551 90.6259 247.556 90.5518V90.5089C247.562 90.3799 247.571 90.2538 247.582 90.1218C247.582 89.9868 247.596 89.8528 247.602 89.7178C250.438 89.3768 253.282 88.9359 256.113 88.3168C261.156 87.4238 266.378 89.3969 270.878 87.2399C273.58 85.9769 273.938 82.5538 273.938 80.0358C274.482 72.2939 272.861 64.3698 272.861 56.6279C272.861 53.5658 271.417 50.3288 273.58 47.6278C274.663 46.1868 275.29 43.5398 276.189 42.0988C278.71 37.5938 266.434 32.2078 266.227 32.0188H266.232C266.667 31.4628 267.025 30.8618 267.321 30.2258C267.67 29.4838 268.281 28.5499 268.416 27.7508V27.7458C268.456 27.7908 283.046 34.0328 283.605 34.6889C286.393 37.9768 290.5 61.9238 290.5 61.9238L279.271 65.2348L276.488 50.3058C276.539 52.4968 277.38 61.0448 277.856 66.3098Z" fill="#E0E0E0"/>
<path d="M269.301 17.9949C269.285 17.8489 269.218 17.7369 269.119 17.6599C269.16 17.2389 269.206 16.8149 269.226 16.3679C269.441 10.4899 269.653 4.29091 261.017 3.59191C250.793 2.75591 251.905 14.7179 251.905 14.7439C251.945 16.2269 252.226 20.6699 252.664 22.3059C253.263 24.5999 254.191 27.3899 256.351 28.7309C256.711 28.9429 257.462 28.8939 257.567 28.8939C261.22 28.7819 265.42 25.6109 265.855 25.3909C268.4 24.1359 269.372 20.6529 269.301 17.9949Z" fill="#FFC89F"/>
<path d="M269.301 17.9949C269.285 17.8489 269.218 17.7369 269.119 17.6599C269.16 17.2389 269.206 16.8149 269.226 16.3679C269.441 10.4899 269.653 4.29091 261.017 3.59191C250.793 2.75591 251.905 14.7179 251.905 14.7439C251.945 16.2269 252.226 20.6699 252.664 22.3059C253.263 24.5999 254.191 27.3899 256.351 28.7309C256.711 28.9429 257.462 28.8939 257.567 28.8939C261.22 28.7819 265.42 25.6109 265.855 25.3909C268.4 24.1359 269.372 20.6529 269.301 17.9949Z" fill="#FFC89F"/>
<path d="M269.3 17.9949C269.285 17.8489 269.217 17.7369 269.119 17.6599C269.16 17.2389 269.205 16.8149 269.225 16.3679C269.44 10.4899 269.652 4.29093 261.016 3.59193C256.364 3.20793 254.064 5.47692 252.924 8.07193C255.977 8.00893 258.893 9.60793 261.695 11.0739C263.133 11.7959 263.313 13.9619 262.594 15.2129C261.695 16.8379 260.073 18.2779 261.517 19.8969C262.056 20.8019 263.133 21.3459 263.496 22.0599C264.76 25.8429 259.535 26.3759 256.653 27.1009C256.149 27.2299 255.373 27.0869 254.96 27.4959C255.359 27.9799 255.82 28.3959 256.35 28.7309C256.71 28.9429 257.461 28.8939 257.567 28.8939C261.219 28.7819 265.419 25.6109 265.854 25.3909C268.4 24.1359 269.371 20.6529 269.3 17.9949Z" fill="#F0B990"/>
<path d="M272.849 8.32994C272.307 6.08394 271.898 3.91294 269.904 2.47494C268.122 1.17293 266.054 0.907935 263.94 0.661941C261.397 0.375937 258.684 0.491935 256.415 1.81594C254.614 2.85293 252.698 4.58893 251.904 6.52594C251.701 7.02094 251.543 7.54294 251.523 8.07794C251.517 8.46794 251.44 9.05794 251.649 9.39894C251.933 9.83694 252.483 9.76794 252.895 9.93994C253.502 10.2039 254.201 10.3899 254.854 10.4839C257.553 10.8679 259.707 9.21194 262.096 8.32694C262.634 8.12994 264.422 7.45394 264.27 8.61693C264.124 9.71994 263.302 10.7249 263.37 11.8559C263.43 12.7899 264.298 13.1909 265.043 13.4999C265.716 13.9849 265.845 15.4679 265.756 16.2079C265.668 17.0039 265.255 17.8229 265.27 18.6189C265.281 19.4269 266.034 20.1149 266.773 19.5129C267.315 19.0599 267.71 18.2609 268.002 17.6369C268.185 17.2389 268.329 16.7749 268.647 16.4939C269.008 16.1729 269.486 16.0439 269.956 15.9549C269.389 16.9869 268.707 17.9379 268.18 18.9919C267.819 19.7189 268.884 20.1029 269.326 19.5759C268.965 20.4959 268.506 21.3829 268.08 22.2799C267.83 22.7899 268.054 23.7519 268.816 23.2449C270.219 22.2859 271.056 20.7389 271.766 19.2499C272.144 18.4469 272.491 17.6369 272.694 16.7749C272.912 15.8459 272.921 14.9039 273.089 13.9729C273.15 13.6579 273.404 13.4169 273.433 13.1429C273.476 12.6039 273.468 12.0659 273.419 11.5269C273.327 10.4439 273.095 9.38994 272.849 8.32994ZM271.296 17.5909C271.354 17.4279 271.485 16.8859 271.571 16.5859C271.503 16.9289 271.414 17.2729 271.296 17.5909Z" fill="#2B1E16"/>
<path d="M267.931 16.574C267.037 17.943 266.925 19.453 267.684 19.949C268.435 20.444 269.772 19.731 270.669 18.367C271.566 17.004 271.68 15.489 270.915 14.999C270.156 14.497 268.827 15.213 267.931 16.574Z" fill="#FFC89F"/>
<path d="M260.073 115.518C258.28 117.32 256.837 119.294 256.112 121.814C253.772 129.56 255.754 136.942 257.011 144.678C257.73 149.548 258.094 155.486 253.955 158.726C252.253 160.144 249.44 159.892 247.18 158.577L247.476 164.002L261.78 164.163L258.684 125.635C258.684 125.635 260.088 119.849 261.093 115.862C261.116 115.742 261.136 115.627 261.156 115.518C261.334 114.613 260.434 115.338 260.073 115.518Z" fill="#15202E"/>
<path d="M206.161 56.697C207.21 55.004 209.642 53.337 211.598 52.97C221.483 51.097 249.312 45.855 259.197 43.993C261.15 43.62 262.921 44.927 263.138 46.903L266.931 80.409L263.25 113.639C263.035 115.616 261.291 117.592 259.357 118.051L185.446 135.673L188.101 85.92C188.101 85.92 201.183 64.754 206.161 56.697Z" fill="#F9AC19"/>
<path d="M263.138 46.903C262.938 45.093 261.437 43.847 259.678 43.941L263.244 75.427L259.564 108.661C259.343 110.637 257.593 112.605 255.662 113.066L185.758 129.735L185.446 135.673L259.357 118.051C261.291 117.592 263.035 115.616 263.25 113.639L266.931 80.409L263.138 46.903Z" fill="#DE9509"/>
<path d="M208.848 128.901C208.811 125.999 208.782 123.089 208.777 120.187C208.771 117.838 208.679 115.541 208.249 113.273C207.396 108.844 205.775 104.702 203.698 100.738C201.538 96.636 199.017 92.791 196.643 88.8329C195.457 86.8589 194.185 84.8999 193.128 82.858C192.604 81.849 192.031 80.827 191.533 79.7729C189.181 83.5789 187.534 86.2489 187.534 86.2489L184.879 136.011L208.862 129.875C208.857 129.551 208.851 129.225 208.848 128.901Z" fill="#DE9509"/>
<path d="M262.474 78.9019L204.812 87.5669L190.158 89.7699C190.885 88.5889 192.558 85.7999 194.629 82.3019C195.858 80.2279 197.236 77.9079 198.639 75.5359C199.639 73.8399 200.659 72.1219 201.644 70.4379C205.952 63.1389 209.779 56.6359 209.779 56.6359L238.951 51.2679L249.727 49.2979L259.415 47.5129L259.552 48.9079L260.532 58.9569L262.474 78.9019Z" fill="#26252E"/>
<g style="mix-blend-mode:screen" opacity="0.3">
<path d="M249.727 49.298L198.639 75.536C199.639 73.84 200.659 72.122 201.644 70.438L238.951 51.268L249.727 49.298Z" fill="#242130"/>
</g>
<g style="mix-blend-mode:screen" opacity="0.3">
<path d="M260.532 58.957L204.812 87.567L190.158 89.77C190.885 88.589 192.558 85.8 194.629 82.302L259.552 48.908L260.532 58.957Z" fill="#242130"/>
</g>
<path d="M60.5012 96.472H48.7021C47.9773 96.472 47.2673 95.911 47.1062 95.198L45.1992 86.702C45.0442 85.994 45.5002 85.422 46.2192 85.422H60.5012C61.2221 85.422 61.8071 86.014 61.8071 86.733V95.161C61.8071 95.891 61.2221 96.472 60.5012 96.472Z" fill="#DE9509"/>
<path d="M66.287 97.813C66.748 98.28 66.748 99.025 66.287 99.494C65.8229 99.958 65.072 99.958 64.6078 99.494L59.4069 94.287C58.9399 93.823 58.9399 93.078 59.4069 92.608C59.8649 92.15 60.612 92.15 61.0759 92.608L66.287 97.813Z" fill="#DE9509"/>
<path d="M198.121 96.472H209.917C210.644 96.472 211.357 95.911 211.512 95.198L213.423 86.702C213.577 85.994 213.119 85.422 212.397 85.422H198.121C197.399 85.422 196.812 86.014 196.812 86.733V95.161C196.812 95.891 197.399 96.472 198.121 96.472Z" fill="#DE9509"/>
<path d="M192.335 97.813C191.87 98.28 191.87 99.025 192.335 99.494C192.793 99.958 193.549 99.958 194.01 99.494L199.215 94.287C199.676 93.823 199.676 93.078 199.215 92.608C198.751 92.15 198.001 92.15 197.542 92.608L192.335 97.813Z" fill="#DE9509"/>
<path d="M86.2639 133.369V156.446C86.209 161.487 82.1589 165.575 77.103 165.652H69.4209C64.2881 165.652 60.1279 161.487 60.1279 156.348V133.369C60.1279 128.239 64.2881 124.066 69.4209 124.066H76.9661C82.105 124.066 86.2639 128.239 86.2639 133.369Z" fill="#26252E"/>
<rect x="74.5054" y="146.506" width="1.42642" height="19.1462" fill="#26252E"/>
<rect x="70.4521" y="146.506" width="1.43519" height="19.1462" fill="#26252E"/>
<path d="M86.2637 148.058V150.132L75.9316 160.516L75.3271 161.126V159.052L75.9316 158.445L86.2637 148.058Z" fill="#26252E"/>
<path d="M86.2637 154.354V156.445L77.1033 165.652H75.3271V165.357L75.9316 164.758L86.2637 154.354Z" fill="#26252E"/>
<path d="M86.2637 141.742V143.83L75.9316 154.211L75.3271 154.818V152.739L75.9316 152.14L86.2637 141.742Z" fill="#26252E"/>
<path d="M60.1284 148.058V150.132L70.4519 160.516L71.0591 161.126V159.052L70.4519 158.445L60.1284 148.058Z" fill="#26252E"/>
<path d="M60.1284 154.354V156.445L69.2888 165.652H71.0591V165.357L70.4519 164.758L60.1284 154.354Z" fill="#26252E"/>
<path d="M60.1284 141.742V143.83L70.4519 154.211L71.0591 154.818V152.739L70.4519 152.14L60.1284 141.742Z" fill="#26252E"/>
<path d="M198.513 133.369V156.446C198.465 161.487 194.403 165.575 189.355 165.652H181.67C176.534 165.652 172.375 161.487 172.375 156.348V133.369C172.375 128.239 176.534 124.066 181.67 124.066H189.218C194.357 124.066 198.513 128.239 198.513 133.369Z" fill="#26252E"/>
<rect x="186.749" y="146.506" width="1.43199" height="19.1462" fill="#26252E"/>
<rect x="182.701" y="146.506" width="1.43492" height="19.1462" fill="#26252E"/>
<path d="M198.513 148.058V150.132L188.181 160.516L187.58 161.126V159.052L188.181 158.445L198.513 148.058Z" fill="#26252E"/>
<path d="M198.513 154.354V156.445L189.356 165.652H187.58V165.357L188.181 164.758L198.513 154.354Z" fill="#26252E"/>
<path d="M198.513 141.742V143.83L188.181 154.211L187.58 154.818V152.739L188.181 152.14L198.513 141.742Z" fill="#26252E"/>
<path d="M172.375 148.058V150.132L182.701 160.516L183.305 161.126V159.052L182.701 158.445L172.375 148.058Z" fill="#26252E"/>
<path d="M172.375 154.354V156.445L181.538 165.652H183.305V165.357L182.701 164.758L172.375 154.354Z" fill="#26252E"/>
<path d="M172.375 141.742V143.83L182.701 154.211L183.305 154.818V152.739L182.701 152.14L172.375 141.742Z" fill="#26252E"/>
<path d="M203.42 109.93V126.787V138.216C203.38 143.404 199.186 147.99 194.019 148.46C154.916 151.588 115.733 151.874 76.6162 149.333C72.6172 149.072 68.6223 148.783 64.6262 148.46C61.6414 148.185 58.9883 146.549 57.2703 144.22C55.9983 142.496 55.2332 140.41 55.2192 138.216V126.787V109.93C55.2422 107.2 56.4163 104.628 58.2722 102.749C58.6104 102.399 58.9712 102.078 59.3494 101.786C60.4434 100.941 61.7092 100.302 63.0703 99.95C63.5742 99.818 64.0933 99.729 64.6262 99.675C107.718 96.2401 150.917 96.235 194.019 99.675C196.574 99.916 198.883 101.15 200.573 102.966C202.317 104.828 203.4 107.297 203.42 109.93Z" fill="#F9AC19"/>
<path d="M200.974 117.094V133.41V144.446C200.931 149.468 196.878 153.89 191.882 154.355C154.071 157.377 116.186 157.652 78.3579 155.202C74.491 154.951 70.624 154.664 66.759 154.355C63.8811 154.091 61.314 152.507 59.647 150.25C58.415 148.591 57.679 146.569 57.665 144.446V133.41V117.094C57.688 114.453 58.8279 111.972 60.6211 110.153C60.948 109.818 61.291 109.511 61.658 109.228C62.718 108.409 63.9409 107.79 65.262 107.441C65.748 107.32 66.2471 107.234 66.759 107.183C108.44 103.857 150.201 103.857 191.882 107.183C194.351 107.412 196.583 108.606 198.224 110.362C199.908 112.164 200.951 114.556 200.974 117.094Z" fill="#DE9509"/>
<path d="M196.31 98.108C192.501 88.286 189.241 78.269 186.127 68.214C183.667 61.93 177.697 55.433 170.834 54.147C143.055 50.048 115.292 50.065 87.5129 54.187C80.6609 55.482 74.708 61.981 72.2791 68.266C69.2319 78.295 66.0459 88.3 62.334 98.108C106.601 109.079 152.037 109.085 196.31 98.108Z" fill="#F9AC19"/>
<path d="M64.5176 96.467C64.5176 96.467 71.0715 77.255 73.5686 69.028C75.6794 63.649 80.9504 57.642 87.0034 56.473C100.747 54.437 114.677 53.4 128.417 53.4C142.063 53.4 155.896 54.425 169.552 56.43C175.604 57.587 180.904 63.603 183.04 68.979C185.595 77.249 192.301 96.472 192.301 96.472L64.5176 96.467Z" fill="#26252E"/>
<path d="M137.137 61.068C137.137 62.612 135.888 63.855 134.352 63.855H122.459C120.918 63.855 119.677 62.612 119.677 61.068C119.677 59.53 120.918 58.286 122.459 58.286H134.352C135.888 58.286 137.137 59.53 137.137 61.068Z" fill="#1C1C1F"/>
<path d="M113.212 96.435V78.472C113.212 74.637 110.096 71.52 106.257 71.52H88.6501C84.8113 71.52 81.6953 74.637 81.6953 78.472V96.435H113.212Z" fill="#1C1C1F"/>
<path d="M175.119 96.435V78.472C175.119 74.637 172.01 71.52 168.165 71.52H150.56C146.719 71.52 143.603 74.637 143.603 78.472V96.435H175.119Z" fill="#1C1C1F"/>
<path d="M201.218 103.8L196.299 98.1079H62.552L57.4189 103.8H201.218Z" fill="#F9AC19"/>
<path d="M147.145 155.045H111.471C110.511 155.045 109.735 154.269 109.735 153.301V148.402C109.735 147.446 110.511 146.666 111.471 146.666H147.145C148.104 146.666 148.887 147.446 148.887 148.402V153.301C148.887 154.269 148.104 155.045 147.145 155.045Z" fill="#26252E"/>
<path d="M193.901 101.087L179.072 113.398C177.817 114.725 175.325 115.81 173.495 115.81H85.1982C83.3652 115.81 80.8732 114.725 79.6242 113.393L64.7341 101.087C63.4882 99.7491 63.9582 98.6641 65.7892 98.6641H192.85C194.683 98.6641 195.153 99.7491 193.901 101.087Z" fill="#FFBF46"/>
<g style="mix-blend-mode:screen" opacity="0.3">
<path d="M129.325 53.4C127.38 53.4 125.424 53.423 123.479 53.468L70.7727 80.537C70.2908 81.975 69.8098 83.419 69.3398 84.817L130.508 53.405C130.116 53.405 129.718 53.4 129.325 53.4Z" fill="#242130"/>
<path d="M133.819 53.4399L68.647 86.9109C66.8601 92.2469 65.416 96.4669 65.416 96.4669H70.5669L152.539 54.3739C146.294 53.8519 140.035 53.5459 133.819 53.4399Z" fill="#242130"/>
<path d="M187.178 78.902L152.971 96.472H161.479L188.439 82.629C188.021 81.388 187.594 80.139 187.178 78.902Z" fill="#242130"/>
</g>
<rect x="67.6309" y="139.995" width="20.5011" height="6.87749" fill="#DE9509"/>
<rect x="170.514" y="139.995" width="20.4893" height="6.87749" fill="#DE9509"/>
<path d="M78.2122 125.658V128.549C78.2122 131.602 75.7341 134.077 72.6863 134.077H58.5073C55.4531 134.077 52.9731 131.602 52.9731 128.549V118.457C52.9731 115.398 55.4531 112.923 58.5073 112.923H63.2974C64.9583 112.923 67.3413 113.779 68.6243 114.839L75.8943 120.846C77.1753 121.906 78.2122 124.06 78.2122 125.658Z" fill="#DE9509"/>
<path d="M58.5071 132.427C56.3701 132.427 54.6289 130.683 54.6289 128.549V118.457C54.6289 116.32 56.3701 114.573 58.5071 114.573H63.2971C64.5801 114.573 66.5791 115.295 67.5701 116.114L74.8369 122.129C75.74 122.869 76.5559 124.555 76.5559 125.658V128.549C76.5559 130.683 74.8169 132.427 72.686 132.427H58.5071Z" fill="#E0E0E0"/>
<path d="M180.43 125.658V128.549C180.43 131.602 182.899 134.077 185.955 134.077H200.132C203.191 134.077 205.66 131.602 205.66 128.549V118.457C205.66 115.398 203.191 112.923 200.132 112.923H195.34C193.678 112.923 191.298 113.779 190.014 114.839L182.75 120.846C181.467 121.906 180.43 124.06 180.43 125.658Z" fill="#DE9509"/>
<path d="M185.955 132.427C183.827 132.427 182.08 130.683 182.08 128.549V125.658C182.08 124.555 182.899 122.869 183.799 122.129L191.068 116.114C192.06 115.295 194.059 114.573 195.34 114.573H200.132C202.269 114.573 204.005 116.32 204.005 118.457V128.549C204.005 130.683 202.269 132.427 200.132 132.427H185.955Z" fill="#E0E0E0"/>
<path d="M167.743 134.787C167.637 138.697 164.67 142.086 160.826 142.742C139.781 145.28 118.856 145.28 97.8196 142.742C93.9695 142.086 90.9966 138.697 90.8936 134.787V128.953C90.9966 125.04 93.9695 121.654 97.8196 121.001C118.856 118.466 139.783 118.466 160.826 121.001C164.67 121.654 167.637 125.04 167.743 128.953V134.787Z" fill="#CCCCCC"/>
<path d="M129.491 142.327C119.171 142.327 108.688 141.694 98.3264 140.445C95.5906 139.952 93.4766 137.52 93.3794 134.759V128.984C93.4766 126.22 95.5906 123.782 98.3264 123.29C108.681 122.043 119.159 121.419 129.487 121.419C139.803 121.419 150.293 122.043 160.656 123.29C163.393 123.782 165.512 126.22 165.598 128.984V134.759C165.512 137.52 163.393 139.952 160.656 140.445C150.296 141.694 139.812 142.327 129.491 142.327Z" fill="#26252E"/>
<path d="M163.764 126.902C163.764 127.689 163.129 128.328 162.338 128.328H96.301C95.519 128.328 94.8799 127.689 94.8799 126.902C94.8799 126.117 95.519 125.475 96.301 125.475H162.338C163.129 125.475 163.764 126.117 163.764 126.902Z" fill="#1C1C1F"/>
<path d="M163.764 131.766C163.764 132.55 163.129 133.186 162.338 133.186H96.301C95.519 133.186 94.8799 132.55 94.8799 131.766C94.8799 130.978 95.519 130.342 96.301 130.342H162.338C163.129 130.342 163.764 130.978 163.764 131.766Z" fill="#1C1C1F"/>
<path d="M163.764 136.838C163.764 137.621 163.129 138.259 162.338 138.259H96.301C95.519 138.259 94.8799 137.621 94.8799 136.838C94.8799 136.054 95.519 135.415 96.301 135.415H162.338C163.129 135.415 163.764 136.054 163.764 136.838Z" fill="#1C1C1F"/>
<path d="M63.8923 120.981C63.8923 123.06 62.2112 124.748 60.1282 124.748C58.0493 124.748 56.3623 123.06 56.3623 120.981C56.3623 118.898 58.0493 117.214 60.1282 117.214C62.2112 117.214 63.8923 118.898 63.8923 120.981Z" fill="white"/>
<path d="M198.367 120.981C198.367 123.06 196.68 124.748 194.597 124.748C192.521 124.748 190.834 123.06 190.834 120.981C190.834 118.898 192.521 117.214 194.597 117.214C196.68 117.214 198.367 118.898 198.367 120.981Z" fill="white"/>
<rect x="126.802" y="53.3997" width="3.21653" height="7.91438" fill="#1C1C1F"/>
<rect x="69.4609" y="135.415" width="14.8438" height="6.91181" fill="#E0E0E0"/>
<rect x="174.329" y="135.415" width="14.8435" height="6.91181" fill="#E0E0E0"/>
<path d="M67.6304 141.742C67.6304 139.683 65.9556 138.004 63.8926 138.004C61.8245 138.004 60.1514 139.683 60.1514 141.742C60.1514 143.813 61.8245 145.489 63.8926 145.489C65.9556 145.489 67.6304 143.813 67.6304 141.742Z" fill="#E0E0E0"/>
<path d="M198.338 141.742C198.338 139.683 196.667 138.004 194.597 138.004C192.535 138.004 190.859 139.683 190.859 141.742C190.859 143.813 192.535 145.489 194.597 145.489C196.667 145.489 198.338 143.813 198.338 141.742Z" fill="#E0E0E0"/>
<path d="M132.49 114.573C132.49 113.611 130.663 112.834 128.411 112.834C126.151 112.834 124.324 113.611 124.324 114.573C124.324 115.541 126.151 116.32 128.411 116.32C130.663 116.32 132.49 115.541 132.49 114.573Z" fill="white"/>
<path d="M260.847 86.6019C261.053 88.0419 260.05 89.3769 258.607 89.5889L248.601 91.0209C247.16 91.2249 245.826 90.2189 245.616 88.7789C245.413 87.3379 246.41 86.0029 247.857 85.7939L257.862 84.3609C259.3 84.1519 260.632 85.1489 260.847 86.6019Z" fill="#DE9509"/>
<path d="M259.374 85.739C259.578 87.189 258.581 88.518 257.134 88.735L247.132 90.168C245.691 90.368 244.359 89.369 244.147 87.922C243.935 86.478 244.946 85.143 246.387 84.934L256.384 83.508C257.828 83.299 259.168 84.304 259.374 85.739Z" fill="#E0E0E0"/>
<path d="M6.90088 20.332C6.96997 20.613 7.07788 21.114 7.13599 21.266C7.0271 20.968 6.95801 20.653 6.90088 20.332Z" fill="#2B1E16"/>
<path d="M3.36597 87.4349C3.36597 86.6329 2.71606 85.9829 1.92212 85.9829C1.12598 85.9829 0.476074 86.6329 0.476074 87.4349C0.476074 88.2369 1.12598 88.8789 1.92212 88.8789C2.71606 88.8789 3.36597 88.2369 3.36597 87.4349Z" fill="white"/>
<path d="M215.302 46.628C215.285 46.399 212.601 43.5 212.455 43.34C211.913 42.75 211.372 42.145 210.822 41.564C209.756 40.432 208.347 39.725 207.27 38.619C206.94 38.293 206.058 37.086 205.54 37.107C205.419 37.107 205.328 37.207 205.265 37.307C204.251 38.9 206.256 40.086 207.198 40.956C207.556 41.28 207.843 41.744 208.175 42.102C206.823 41.695 205.471 41.274 204.113 40.862C203.334 40.627 199.444 39.312 199.181 40.263C199.049 40.75 199.708 41.042 200.049 41.208C201.51 41.907 203.028 42.503 204.577 42.976C203.26 42.603 201.936 42.225 200.619 41.853C200.006 41.69 197.594 41.134 197.39 42.099C197.336 42.366 197.485 42.635 197.737 42.75C199.53 43.58 201.478 44.01 203.432 44.302C201.953 44.036 200.47 43.769 198.989 43.506C198.602 43.431 197.837 43.357 197.582 43.827C197.276 44.402 198.015 44.806 198.387 44.938C200.049 45.54 201.575 45.955 203.306 46.278C201.977 46.399 197.915 45.482 198.573 46.516C198.76 46.806 199.083 46.932 199.404 47.052C201.295 47.768 202.415 48.226 204.302 48.942C205.084 49.229 206.368 49.567 207.193 49.71C208.21 49.882 208.994 50.022 209.997 50.254C211.383 50.575 212.692 50.492 214.119 50.375L215.302 46.628Z" fill="#FFC89F"/>
</svg>
