<svg width="17" height="17" viewBox="0 0 17 17" fill="none" xmlns="http://www.w3.org/2000/svg">
<path d="M14.1635 2.56137C11.0745 -0.526642 6.04947 -0.526642 2.96146 2.56137C1.87748 3.64536 1.13651 5.00638 0.817417 6.49838C0.50748 7.95139 0.608432 9.45639 1.11148 10.8513C1.17142 11.0183 1.35648 11.1054 1.52445 11.0454C1.69144 10.9843 1.77848 10.7993 1.71842 10.6324C1.2565 9.35037 1.16251 7.96835 1.44852 6.63339C1.74051 5.26334 2.42142 4.01236 3.41751 3.01736C6.25443 0.180389 10.8705 0.180389 13.7074 3.01736C15.0585 4.36838 15.8145 6.16434 15.8374 8.07437C15.8594 9.98135 15.1485 11.7914 13.8365 13.1723L13.7904 13.2213C13.7625 13.2503 13.7355 13.2794 13.7074 13.3073C10.8705 16.1444 6.25443 16.1444 3.41751 13.3073C3.4025 13.2924 3.38749 13.2774 3.37247 13.2614C3.37149 13.2324 3.37149 13.2024 3.37149 13.1734C3.37149 13.1093 3.37247 13.0443 3.37442 12.9793C3.37552 12.9583 3.37748 12.9373 3.37845 12.9154C3.3804 12.8723 3.38248 12.8294 3.38541 12.7874C3.38749 12.7614 3.39041 12.7364 3.39249 12.7113C3.39542 12.6734 3.39945 12.6344 3.40348 12.5963C3.40641 12.5694 3.41043 12.5424 3.41349 12.5154C3.41849 12.4793 3.42252 12.4434 3.42752 12.4074C3.43143 12.3794 3.43644 12.3524 3.44144 12.3253C3.44644 12.2893 3.45243 12.2544 3.45951 12.2194C3.46451 12.1914 3.46952 12.1643 3.4755 12.1374C3.48246 12.1024 3.48941 12.0684 3.49649 12.0344C3.50345 12.0064 3.51041 11.9793 3.51651 11.9514C3.52445 11.9174 3.5325 11.8844 3.54142 11.8513C3.5485 11.8233 3.55643 11.7964 3.56449 11.7683C3.57352 11.7354 3.58243 11.7024 3.59244 11.6704C3.6005 11.6424 3.60941 11.6154 3.61844 11.5883C3.62845 11.5564 3.63846 11.5233 3.64945 11.4914C3.65848 11.4644 3.66849 11.4373 3.6785 11.4104C3.68949 11.3794 3.70145 11.3474 3.71341 11.3153C3.72342 11.2884 3.73343 11.2624 3.74442 11.2364C3.75748 11.2044 3.76944 11.1734 3.7825 11.1424C3.79349 11.1164 3.80545 11.0904 3.81742 11.0644C3.83048 11.0334 3.84452 11.0023 3.85843 10.9724C3.87052 10.9464 3.88346 10.9204 3.89542 10.8954C3.91043 10.8654 3.92545 10.8354 3.94046 10.8054C3.95353 10.7804 3.96646 10.7544 3.97953 10.7293C3.99552 10.7003 4.01151 10.6704 4.02848 10.6414C4.04251 10.6164 4.05545 10.5913 4.07047 10.5674C4.08744 10.5384 4.10453 10.5094 4.12149 10.4804L4.16642 10.4084C4.18448 10.3794 4.20243 10.3513 4.22049 10.3233C4.23648 10.2993 4.2515 10.2763 4.26749 10.2534C4.28641 10.2254 4.30643 10.1974 4.32547 10.1704C4.34146 10.1474 4.35843 10.1244 4.37442 10.1013C4.39444 10.0744 4.41544 10.0473 4.43546 10.0204C4.45353 9.99838 4.46952 9.97537 4.48746 9.95334C4.50846 9.92734 4.53043 9.90036 4.55143 9.87436C4.56949 9.85336 4.58744 9.83139 4.6055 9.81033C4.62748 9.78439 4.65042 9.75839 4.67252 9.73239C4.69144 9.71237 4.70951 9.69138 4.72843 9.67038C4.7515 9.64536 4.77542 9.62039 4.79947 9.59537C4.81852 9.57535 4.83744 9.55539 4.85648 9.53537C4.8804 9.51035 4.90543 9.48636 4.93045 9.46237C4.95047 9.44339 4.96952 9.42337 4.98941 9.40536C5.01541 9.38034 5.04142 9.35739 5.06742 9.33334C5.08744 9.31534 5.10746 9.29636 5.12748 9.27939C5.15445 9.25534 5.18241 9.23239 5.21048 9.20834C5.2305 9.19138 5.25052 9.17435 5.27042 9.15738C5.29947 9.13437 5.32853 9.11136 5.35746 9.08939C5.37748 9.07333 5.39749 9.05637 5.41849 9.04135C5.4495 9.01834 5.4805 8.99539 5.51151 8.97336C5.53141 8.95834 5.55045 8.94437 5.57047 8.93039C5.6055 8.90536 5.64041 8.88235 5.67545 8.85934L5.72745 8.82437C5.77347 8.79434 5.82047 8.76535 5.86747 8.73734L5.88846 8.72336C5.94352 8.69034 5.99845 8.65939 6.05448 8.62839C6.07352 8.61838 6.09244 8.60837 6.11246 8.59738C6.14945 8.57834 6.18644 8.55838 6.22342 8.53934C6.24747 8.52737 6.27249 8.51535 6.29752 8.50436C6.32743 8.48935 6.35843 8.47433 6.38944 8.45938C6.97342 9.01736 7.75345 9.33334 8.56241 9.33334C9.37149 9.33334 10.1504 9.01736 10.7355 8.45938C11.8755 8.98734 12.8095 9.93436 13.3164 11.0863C13.3885 11.2494 13.5785 11.3233 13.7415 11.2523C13.9045 11.1804 13.9784 10.9904 13.9064 10.8274C13.3525 9.56735 12.3865 8.56033 11.1654 7.95236C11.5194 7.43234 11.7115 6.81839 11.7115 6.18436C11.7115 4.44833 10.2985 3.03537 8.56241 3.03537C8.38443 3.03537 8.23941 3.18039 8.23941 3.35837C8.23941 3.53635 8.38443 3.68039 8.56241 3.68039C9.94352 3.68039 11.0664 4.80338 11.0664 6.18436C11.0664 6.80234 10.8374 7.39639 10.4204 7.85837C9.94449 8.38541 9.26749 8.68936 8.56241 8.68936C7.85746 8.68936 7.17948 8.38638 6.7045 7.85934L6.70353 7.85837C6.28751 7.39639 6.05741 6.80234 6.05741 6.18436C6.05741 5.51035 6.32144 4.87839 6.80045 4.40439C6.92752 4.27939 6.9285 4.07535 6.8035 3.94833C6.6785 3.82236 6.47452 3.82138 6.34745 3.94638C5.74442 4.54239 5.41349 5.33737 5.41349 6.18436C5.41349 6.81735 5.60453 7.43137 5.95841 7.95035L5.94852 7.95535C5.9235 7.96835 5.89945 7.98135 5.87442 7.99435C5.83646 8.01437 5.79752 8.03336 5.76041 8.05435C5.73343 8.06937 5.70743 8.08438 5.68143 8.09933C5.64542 8.11935 5.61051 8.13834 5.57547 8.15939C5.5485 8.17538 5.52249 8.19235 5.49552 8.20834C5.46244 8.22934 5.42948 8.24936 5.39652 8.27036C5.36942 8.28738 5.34342 8.30539 5.31644 8.32333C5.28446 8.34439 5.25345 8.36539 5.22147 8.38736C5.19547 8.40536 5.16947 8.42435 5.14347 8.44339C5.11246 8.46536 5.08243 8.48734 5.05143 8.51035C5.02652 8.52939 5.00052 8.54935 4.9755 8.56937C4.94547 8.59238 4.91642 8.61539 4.88749 8.63834C4.86246 8.65939 4.83744 8.67935 4.81241 8.70035C4.78348 8.72433 4.7554 8.74838 4.72745 8.77237C4.70353 8.79337 4.6785 8.81534 4.65445 8.83633C4.62748 8.86136 4.59952 8.88638 4.57242 8.91238C4.54947 8.93338 4.52542 8.95535 4.50248 8.97836C4.47647 9.00339 4.4495 9.03036 4.4235 9.05637C4.40042 9.07938 4.37845 9.10135 4.35648 9.12436C4.33048 9.15134 4.30448 9.17838 4.27945 9.20639C4.25748 9.22934 4.23648 9.25235 4.21549 9.27536C4.18949 9.30435 4.16544 9.33334 4.14041 9.36136C4.12052 9.38535 4.09952 9.40836 4.08048 9.43137C4.05448 9.46133 4.03043 9.49234 4.0054 9.52335C3.98746 9.54636 3.96842 9.56839 3.95047 9.59238C3.92447 9.62534 3.89945 9.65939 3.87442 9.69339C3.85843 9.71439 3.84244 9.73538 3.82743 9.75638C3.79544 9.80038 3.76444 9.84537 3.73441 9.89035L3.70951 9.92538C3.67142 9.98239 3.63443 10.0393 3.59842 10.0974C3.58646 10.1173 3.5745 10.1383 3.56241 10.1584C3.53946 10.1974 3.51541 10.2354 3.49344 10.2744C3.47953 10.2993 3.46646 10.3244 3.45243 10.3484C3.43351 10.3844 3.41349 10.4193 3.39444 10.4554C3.3804 10.4824 3.36747 10.5094 3.35343 10.5354C3.33646 10.5703 3.31852 10.6054 3.30143 10.6404C3.28849 10.6674 3.27542 10.6964 3.26249 10.7243C3.24649 10.7584 3.2305 10.7934 3.21549 10.8283C3.20353 10.8564 3.19144 10.8853 3.17948 10.9143C3.16446 10.9494 3.15042 10.9843 3.13651 11.0194C3.12442 11.0484 3.11344 11.0783 3.10245 11.1074C3.08841 11.1433 3.07547 11.1784 3.06351 11.2133C3.05252 11.2434 3.04251 11.2733 3.0325 11.3044C3.02042 11.3394 3.00846 11.3753 2.99747 11.4113C2.98746 11.4414 2.97843 11.4724 2.96952 11.5023C2.95841 11.5384 2.94852 11.5753 2.93741 11.6114C2.92948 11.6424 2.92142 11.6734 2.91349 11.7044C2.90348 11.7404 2.89444 11.7774 2.88541 11.8144C2.87845 11.8454 2.87149 11.8764 2.86441 11.9074C2.85648 11.9453 2.84842 11.9834 2.84049 12.0214C2.83451 12.0523 2.82853 12.0824 2.82242 12.1143C2.81546 12.1524 2.80948 12.1914 2.8035 12.2304C2.7985 12.2603 2.79251 12.2914 2.78849 12.3224C2.7825 12.3623 2.7775 12.4024 2.77249 12.4424C2.76847 12.4724 2.76444 12.5023 2.76151 12.5324C2.7565 12.5744 2.75345 12.6173 2.74942 12.6594C2.74747 12.6884 2.74442 12.7163 2.74247 12.7444C2.73844 12.7924 2.73648 12.8394 2.73441 12.8874C2.73343 12.9113 2.73148 12.9344 2.7305 12.9583C2.72745 13.0304 2.72647 13.1024 2.72647 13.1743C2.72647 13.2514 2.72843 13.3253 2.73246 13.4063C2.73246 13.4254 2.73551 13.4434 2.73941 13.4613L2.74051 13.4654C2.74442 13.4834 2.74942 13.5003 2.7565 13.5164L2.75846 13.5214C2.76541 13.5374 2.77347 13.5534 2.7825 13.5674L2.78641 13.5733C2.79544 13.5874 2.80643 13.6004 2.81852 13.6134L2.82047 13.6164L2.86344 13.6613C2.89542 13.6964 2.92752 13.7304 2.96048 13.7633C4.5054 15.3084 6.53348 16.0804 8.56241 16.0804C10.5905 16.0804 12.6184 15.3084 14.1635 13.7633C14.1964 13.7304 14.2284 13.6964 14.2615 13.6613L14.3035 13.6164C15.7325 12.1134 16.5054 10.1424 16.4815 8.06735C16.4574 5.98734 15.6344 4.03238 14.1635 2.56137Z" fill="#F9AC19"/>
</svg>
