<svg width="39" height="39" viewBox="0 0 39 39" fill="none" xmlns="http://www.w3.org/2000/svg">
<circle cx="19.5" cy="19.7096" r="19.2275" fill="#DC4E41"/>
<path d="M6.96683 20.5699C6.89786 23.8789 9.17685 27.0359 12.3108 28.0649C15.2638 29.0569 18.8938 28.3149 20.8589 25.7869C22.2928 24.0149 22.6188 21.6529 22.4638 19.4459C19.9348 19.4239 17.4068 19.4308 14.8818 19.4349C14.8778 20.3359 14.8818 21.2328 14.8858 22.1338C16.3998 22.1759 17.9138 22.1569 19.4278 22.1869C19.0458 23.4969 18.1748 24.7159 16.8539 25.1889C14.3028 26.3129 11.0478 24.8439 10.2448 22.1679C9.27585 19.6049 10.8618 16.5129 13.4808 15.7669C15.1048 15.1959 16.7778 15.8389 18.1678 16.6829C18.8719 16.0239 19.5298 15.3199 20.1778 14.6089C18.5988 13.2879 16.5699 12.4779 14.4848 12.6559C10.3918 12.7049 6.81082 16.4819 6.96683 20.5699Z" fill="#DC4E41"/>
<path d="M27.3851 17.1629C27.377 17.9169 27.369 18.6739 27.3651 19.4269C26.608 19.4339 25.855 19.4379 25.1021 19.4419V21.6979C25.855 21.7019 26.6121 21.7059 27.3651 21.7129C27.373 22.4669 27.373 23.2198 27.3801 23.9769C28.1301 23.9769 28.8831 23.9729 29.636 23.9769C29.6411 23.2198 29.644 22.4669 29.652 21.7099L31.915 21.6979V19.4419C31.162 19.4389 30.405 19.4349 29.652 19.4269C29.6481 18.6739 29.64 17.9169 29.636 17.1639C28.8831 17.1629 28.134 17.1629 27.3851 17.1629Z" fill="#DC4E41"/>
<path d="M6.96683 20.5699C6.81082 16.4819 10.3918 12.7049 14.4839 12.6559C16.5699 12.4779 18.5988 13.2879 20.1769 14.6089C19.5298 15.3199 18.8708 16.0239 18.1668 16.6829C16.7778 15.8389 15.1048 15.1949 13.4808 15.7669C10.8618 16.5129 9.27481 19.6049 10.2448 22.1679C11.0468 24.8439 14.3028 26.3119 16.8539 25.1879C18.1748 24.7149 19.0448 23.4958 19.4278 22.1869C17.9138 22.1569 16.3988 22.1749 14.8858 22.1338C14.8818 21.2328 14.8778 20.3359 14.8818 19.4349C17.4059 19.4308 19.9348 19.4239 22.4628 19.4459C22.6188 21.6529 22.2928 24.0149 20.8578 25.7859C18.8938 28.3149 15.2638 29.0569 12.3108 28.0649C9.17685 27.0359 6.89786 23.8789 6.96683 20.5699Z" fill="white"/>
<path d="M27.3851 17.1629H29.636C29.64 17.9169 29.6481 18.6739 29.652 19.4269C30.405 19.4339 31.162 19.4379 31.915 19.4419V21.6979L29.652 21.7089C29.644 22.4659 29.64 23.2189 29.636 23.9769C28.8831 23.9729 28.1301 23.9769 27.3801 23.9769C27.373 23.2189 27.373 22.4659 27.3651 21.7129C26.6121 21.7049 25.855 21.7019 25.1021 21.6979V19.4419C25.855 19.4379 26.6091 19.4339 27.3651 19.4269C27.369 18.6739 27.377 17.9169 27.3851 17.1629Z" fill="white"/>
</svg>
