<svg width="20" height="17" viewBox="0 0 20 17" fill="none" xmlns="http://www.w3.org/2000/svg">
<path d="M15.3496 9.36188V2.4339C15.3496 1.47485 14.5676 0.692871 13.6086 0.692871H1.88062C0.920654 0.692871 0.138672 1.47485 0.138672 2.4339V9.36188C0.138672 10.3209 0.920654 11.1028 1.88062 11.1028H2.37756V13.1909C2.37756 13.5769 2.68958 13.8889 3.07861 13.8889C3.27856 13.8889 3.47156 13.7999 3.60657 13.6459L5.80664 11.0989H13.6127C14.5676 11.1028 15.3496 10.3209 15.3496 9.36188ZM5.58667 10.1589C5.44861 10.1589 5.32068 10.2169 5.22864 10.3209L3.31763 12.5289V10.6288C3.31763 10.3669 3.10559 10.1548 2.84363 10.1548H1.88062C1.44165 10.1548 1.08264 9.79688 1.08264 9.35785V2.4339C1.08264 1.99487 1.44165 1.6369 1.88062 1.6369H13.6086C14.0476 1.6369 14.4056 1.99487 14.4056 2.4339V9.36188C14.4056 9.8009 14.0476 10.1589 13.6086 10.1589H5.58667Z" fill="#F9AC19"/>
<path d="M15.5387 16.5009C15.6737 16.6589 15.8667 16.744 16.0627 16.744C16.1438 16.744 16.2288 16.7279 16.3097 16.6979C16.5868 16.5939 16.7638 16.3389 16.7638 16.0429V13.9539H17.2607C18.2207 13.9539 19.0027 13.1719 19.0027 12.213V5.28491C19.0027 4.32593 18.2207 3.54395 17.2607 3.54395C16.9988 3.54395 16.7877 3.75592 16.7877 4.01392C16.7877 4.27594 16.9988 4.48792 17.2607 4.48792C17.7007 4.48792 18.0587 4.84595 18.0587 5.28491V12.213C18.0587 12.6519 17.7007 13.0099 17.2607 13.0099H16.2937C16.0317 13.0099 15.8197 13.2219 15.8197 13.4839V15.3839L13.9087 13.176C13.8208 13.072 13.6897 13.0139 13.5508 13.0139H6.46179C6.19971 13.0139 5.98779 13.226 5.98779 13.4879C5.98779 13.7499 6.19971 13.9619 6.46179 13.9619H13.3347L15.5387 16.5009Z" fill="#F9AC19"/>
<circle cx="7.74465" cy="6.06349" r="0.562518" fill="#F9AC19"/>
<circle cx="9.62844" cy="6.06349" r="0.562518" fill="#F9AC19"/>
<circle cx="5.86037" cy="6.06349" r="0.562518" fill="#F9AC19"/>
</svg>
