<svg width="252" height="103" viewBox="0 0 252 103" fill="none" xmlns="http://www.w3.org/2000/svg">
<path d="M251.644 65.757C251.648 66.307 251.619 66.84 251.569 67.361C251.44 68.778 251.164 70.13 250.787 71.401C250.558 72.168 250.29 72.906 249.981 73.622C247.454 79.655 242.776 83.906 241.158 85.257C240.806 85.557 240.597 85.7 240.597 85.7L28.1333 83.744L28.0308 83.704L22.2783 82.03L6.00146 77.271L0.385742 63.036L0.390625 60.748L0.391602 42.639L7.89551 38.585C7.89551 38.585 39.4927 33.995 39.9678 33.789C40.4434 33.596 70.8906 17.957 78.7197 14.571C104.036 3.617 135.668 8.853 135.668 8.853C142.247 9.06701 156.025 12.611 161.783 15.842C173.563 22.462 185.168 36.958 191.344 37.803C198.66 38.812 245.984 47.092 250.783 58.643C251.585 60.571 251.649 63.051 251.644 65.757Z" fill="#F9AC19"/>
<path d="M245.96 54.844C243.381 53.127 240.523 51.89 237.745 50.531C235.939 49.656 234.168 48.729 232.314 47.957C230.211 47.082 228.058 46.37 225.857 45.763C223.625 45.147 221.345 44.728 219.081 44.229C216.748 43.693 214.425 43.066 212.096 42.49C208.352 41.554 204.557 40.979 200.772 40.257C198.907 39.908 197.066 39.565 195.175 39.357C193.319 39.143 191.328 38.895 189.482 39.345C189.209 39.403 189.187 39.786 189.477 39.835C190.578 40.049 191.677 40.101 192.782 40.217C193.999 40.361 195.204 40.564 196.396 40.795C198.707 41.228 201.026 41.681 203.334 42.075C205.656 42.483 207.957 42.876 210.244 43.4C212.574 43.947 214.89 44.539 217.219 45.091C219.51 45.632 221.819 46.047 224.087 46.648C226.334 47.258 228.524 48.099 230.66 49.013C233.952 50.424 237.105 52.203 240.291 53.853C242.248 54.873 244.206 55.967 245.932 57.348C246.736 57.985 247.476 58.704 248.07 59.528C248.598 60.247 248.999 61.097 249.418 61.881C249.774 62.512 250.766 62.493 250.894 61.688C251.334 58.732 248.142 56.296 245.96 54.844Z" fill="#DE9509"/>
<path d="M188.733 42.374C180.077 44.022 63.1265 41.108 59.8096 39.271C59.8096 39.271 80.6777 39.087 85.5845 38.787C112.017 37.14 183.156 40.085 183.156 40.085L188.733 42.374Z" fill="#DE9509"/>
<path d="M81.6533 84.239L75.7388 84.184C75.3794 78.86 73.3145 75.363 70.0225 71.556C65.6797 66.531 59.2344 61.942 52.0996 61.875C46.7544 61.826 41.5825 65.886 37.5674 68.825C32.1494 72.799 28.6426 76.643 28.0308 83.704L22.2686 82.03C24.1567 67.246 36.8906 55.836 52.1533 55.977C67.9644 56.124 80.8457 68.643 81.6533 84.239Z" fill="#DE9509"/>
<path d="M232.543 85.627L226.616 85.572C226.215 79.544 223.582 75.508 219.506 71.505C215.232 67.335 209.409 63.326 202.982 63.265C194.694 63.189 187.133 68.906 182.775 75.275C180.515 78.58 179.266 80.937 178.898 85.134L172.987 85.079C174.095 69.502 187.208 57.223 203.038 57.369C218.848 57.514 231.714 70.032 232.543 85.627Z" fill="#DE9509"/>
<path d="M4.56445 73.622L6.00146 77.28L28.1333 83.744L240.597 85.7C240.597 85.7 245.636 81.933 248.901 75.875L18.1016 73.746L0.385742 63.036L4.56445 73.622Z" fill="#DE9509"/>
<path d="M234.604 64.6C237.771 64.632 241.225 64.005 244.855 62.765C245.466 62.557 246.048 61.922 245.953 60.969C245.742 58.705 238.375 49.2 227.568 47.743L214.449 47.605L214.992 49.525C215.038 49.676 219.395 64.462 234.604 64.6Z" fill="#DE9509"/>
<path d="M244.379 61.348C245.409 61.003 238.306 50.69 227.374 49.222L216.43 49.122C216.43 49.122 222.056 69.016 244.379 61.348Z" fill="#E0E0E0"/>
<path d="M220.451 85.525C220.51 84.963 220.556 84.403 220.562 83.839C220.65 74.033 212.747 65.979 202.957 65.889C193.151 65.799 185.09 73.705 185.001 83.511C184.998 84.078 185.022 84.636 185.075 85.196L180.677 85.158C180.635 84.596 180.615 84.036 180.619 83.472C180.73 71.248 190.774 61.388 202.999 61.502C215.206 61.614 225.046 71.657 224.935 83.877C224.93 84.443 224.908 85.003 224.856 85.563L220.451 85.525Z" fill="#26252E"/>
<path d="M221.534 83.842C221.439 94.182 212.969 102.504 202.604 102.408L202.95 64.903C213.313 65.007 221.629 73.476 221.534 83.842Z" fill="#1C1C1F"/>
<path d="M202.95 64.903L202.604 102.408C192.256 102.312 183.932 93.842 184.027 83.494C184.123 73.13 192.604 64.807 202.95 64.903Z" fill="#1C1C1F"/>
<path d="M202.908 69.663C210.651 69.735 216.865 76.053 216.794 83.781C216.723 91.516 210.395 97.739 202.65 97.668C194.918 97.597 188.713 91.258 188.785 83.523C188.856 75.795 195.174 69.592 202.908 69.663Z" fill="#E0E0E0"/>
<path d="M205.251 81.308C207.469 78.054 208.817 75.868 209.865 73.252C213.479 75.178 215.563 78.871 215.354 82.961C212.574 82.511 209.999 82.556 206.067 82.755L205.251 81.308Z" fill="#26252E"/>
<path d="M206.049 84.625C209.978 84.902 212.552 85 215.339 84.587C215.474 88.679 213.321 92.338 209.673 94.194C208.67 91.558 207.365 89.357 205.209 86.049L206.049 84.625Z" fill="#26252E"/>
<path d="M200.318 86.003C198.104 89.272 196.743 91.448 195.706 94.065C192.089 92.141 190.006 88.446 190.213 84.356C193.005 84.821 195.56 84.769 199.5 84.562L200.318 86.003Z" fill="#26252E"/>
<path d="M199.519 82.695C195.581 82.424 193.026 82.325 190.229 82.73C190.097 78.636 192.247 74.982 195.898 73.124C196.895 75.758 198.208 77.968 200.36 81.263L199.519 82.695Z" fill="#1C1C1F"/>
<path d="M208.458 72.422C206.678 74.608 205.423 76.858 203.64 80.359L202.807 80.351L202.897 70.73C204.829 70.748 206.754 71.312 208.458 72.422Z" fill="#26252E"/>
<path d="M197.324 72.319C199.046 71.241 200.975 70.714 202.897 70.73L202.807 80.351L201.993 80.344C200.266 76.809 199.069 74.538 197.324 72.319Z" fill="#1C1C1F"/>
<path d="M203.58 86.968C205.297 90.518 206.51 92.78 208.249 94.992C206.526 96.077 204.59 96.605 202.659 96.587L202.746 86.961L203.58 86.968Z" fill="#26252E"/>
<path d="M202.746 86.961L202.659 96.587C200.735 96.569 198.815 96.006 197.116 94.889C198.902 92.71 200.14 90.469 201.932 86.953L202.746 86.961Z" fill="#1C1C1F"/>
<path d="M69.5749 84.133C69.6306 83.573 69.6618 83.015 69.6677 82.45C69.7566 72.643 61.865 64.589 52.0759 64.499C42.2688 64.409 34.218 72.316 34.1267 82.121C34.1208 82.686 34.136 83.245 34.1936 83.808L29.7839 83.766C29.7488 83.206 29.7375 82.646 29.7439 82.08C29.8547 69.857 39.8908 59.999 52.1159 60.11C64.324 60.223 74.1736 70.267 74.0608 82.489C74.0569 83.055 74.0266 83.613 73.9778 84.173L69.5749 84.133Z" fill="#26252E"/>
<path d="M70.6597 82.452C70.5625 92.791 62.0845 101.115 51.7314 101.017L52.0757 63.512C62.4307 63.617 70.7544 72.086 70.6597 82.452Z" fill="#1C1C1F"/>
<path d="M52.0756 63.512L51.7313 101.017C41.3724 100.922 33.0643 92.451 33.1625 82.106C33.2572 71.742 41.7196 63.417 52.0756 63.512Z" fill="#1C1C1F"/>
<path d="M52.0318 68.275C59.7706 68.345 65.9806 74.661 65.9098 82.389C65.8385 90.127 59.5128 96.351 51.7726 96.278C44.0406 96.208 37.8268 89.869 37.8976 82.132C37.9679 74.404 44.2985 68.202 52.0318 68.275Z" fill="#E0E0E0"/>
<path d="M54.3623 79.918C56.5835 76.662 57.9365 74.477 58.9824 71.863C62.5928 73.79 64.6885 77.481 64.4736 81.571C61.6895 81.122 59.1235 81.165 55.1855 81.364L54.3623 79.918Z" fill="#26252E"/>
<path d="M55.1685 83.231C59.1016 83.511 61.6694 83.612 64.4565 83.197C64.5996 87.291 62.4355 90.946 58.7905 92.802C57.7925 90.169 56.4795 87.966 54.3213 84.657L55.1685 83.231Z" fill="#26252E"/>
<path d="M49.4345 84.613C47.2295 87.882 45.8794 90.059 44.8213 92.675C41.2094 90.75 39.1245 87.054 39.3354 82.966C42.1235 83.43 44.6865 83.378 48.6196 83.174L49.4345 84.613Z" fill="#26252E"/>
<path d="M48.6379 81.304C44.7078 81.033 42.1457 80.932 39.3518 81.338C39.2156 77.246 41.3689 73.592 45.0168 71.734C46.0237 74.367 47.3337 76.577 49.4788 79.873L48.6379 81.304Z" fill="#26252E"/>
<path d="M57.5845 71.032C55.7964 73.219 54.5566 75.468 52.7627 78.969L51.9336 78.963L52.0225 69.341C53.9414 69.359 55.8604 69.924 57.5845 71.032Z" fill="#26252E"/>
<path d="M46.4375 70.929C48.1626 69.852 50.1016 69.323 52.0225 69.341L51.9336 78.963L51.1138 78.954C49.3857 75.42 48.1855 73.149 46.4375 70.929Z" fill="#26252E"/>
<path d="M52.6997 85.577C54.4297 89.128 55.6274 91.39 57.3765 93.602C55.6294 94.687 53.7007 95.213 51.7837 95.197L51.8735 85.569L52.6997 85.577Z" fill="#26252E"/>
<path d="M51.8735 85.569L51.7837 95.197C49.8623 95.179 47.9336 94.616 46.2285 93.499C48.0015 91.32 49.2598 89.079 51.0527 85.562L51.8735 85.569Z" fill="#26252E"/>
<path d="M88.9326 39.253L88.7524 39.225C80.9404 38.25 66.8228 35.576 59.9004 28.627L59.4023 28.13L59.5376 27.438C59.6865 26.729 60.1636 26.519 60.8877 26.213C61.2505 26.049 61.8018 25.819 62.4653 25.543C63.8047 24.98 65.6865 24.213 67.8555 23.334C73.0815 21.197 80.2217 18.263 85.4214 16.025C89.1924 14.394 96.6616 11.679 100.574 11.287C107.601 10.617 116.313 10.256 123.891 10.325C132.901 10.409 139.971 11.052 144.906 12.264C158.071 15.473 163.99 20.609 166.841 23.082C167.154 23.356 167.438 23.6 167.682 23.799C168.591 24.554 178.74 34.877 178.74 34.877L183.163 40.199L176.511 40.059L88.9326 39.253Z" fill="#DE9509"/>
<path d="M144.593 13.554C133.207 10.776 111.756 11.553 100.695 12.618C96.8995 12.976 89.4356 15.735 85.9424 17.242C76.4444 21.344 60.7374 27.595 60.8438 27.692C68.5606 35.457 86.2764 37.582 89.0308 37.919L180.17 38.76L177.782 35.8C177.782 35.8 167.614 25.462 166.834 24.83C164.234 22.675 158.862 17.04 144.593 13.554Z" fill="#1C1C1F"/>
<path d="M89.1074 36.667H89.0635C78.3706 35.317 69.5747 32.562 64.2886 28.92L63.0903 28.084L64.4434 27.524C65.6987 27.006 67.2515 26.366 68.8413 25.722C74.0786 23.588 81.2163 20.665 86.4478 18.4C90.2373 16.775 97.4287 14.194 100.812 13.869C107.767 13.205 116.378 12.847 123.866 12.915C132.553 12.994 139.614 13.64 144.296 14.782C156.849 17.845 162.25 22.52 165.151 25.039C165.478 25.324 165.771 25.581 166.037 25.791C166.864 26.501 173.152 32.853 176.338 36.118L177.677 37.481L89.1074 36.667Z" fill="#26252E"/>
<path d="M89.1665 35.867C78.5376 34.533 69.9077 31.825 64.7446 28.262C66.0137 27.735 67.5625 27.101 69.1396 26.455C74.3696 24.313 81.5415 21.388 86.7627 19.135C90.5117 17.515 97.5884 14.978 100.894 14.657C107.812 13.986 116.396 13.635 123.859 13.705C132.484 13.784 139.497 14.427 144.103 15.554C156.48 18.577 161.778 23.169 164.632 25.641C164.959 25.932 165.266 26.184 165.527 26.413C166.267 27.017 171.991 32.818 175.765 36.666L89.1665 35.867Z" fill="#26252E"/>
<rect x="127.294" y="26.2081" width="25.3165" height="2.88528" transform="rotate(-89.4683 127.294 26.2081)" fill="#1C1C1F"/>
<path d="M250.786 71.401C250.557 72.168 250.289 72.906 249.981 73.622C249.813 74.054 249.626 74.471 249.419 74.877C248.43 76.915 247.224 78.718 246.023 80.242C244.042 82.73 242.09 84.473 241.158 85.257C238.019 84.512 235.7 81.684 235.731 78.32C235.749 76.372 236.555 74.616 237.838 73.353C239.135 72.086 240.894 71.311 242.852 71.329L250.786 71.401Z" fill="#2B1E16"/>
<path d="M9.94629 50.495L9.91064 54.294C9.87354 58.367 6.53955 61.642 2.46875 61.603L2.12939 61.6C1.51953 61.594 0.930664 61.514 0.384766 61.375L0.385742 43.269C0.993652 43.115 1.64551 43.027 2.30029 43.033L2.64062 43.036C6.71143 43.074 9.98535 46.41 9.94629 50.495Z" fill="#CCCCCC"/>
<path d="M7.78271 50.896L7.75439 53.847C7.72461 56.999 5.14453 59.534 1.98242 59.507L1.71875 59.504C1.24854 59.5 0.79834 59.442 0.356445 59.335L0.368652 45.303C0.840332 45.182 1.34033 45.114 1.85059 45.118L2.11475 45.12C5.27832 45.15 7.80957 47.738 7.78271 50.896Z" fill="#E0E0E0"/>
<path d="M249.419 74.877C248.43 76.915 247.225 78.718 246.023 80.242L236.548 78.248L241.096 73.776L249.419 74.877Z" fill="#E0E0E0"/>
<path d="M228.964 53.651C228.949 55.309 227.593 56.647 225.933 56.631C224.268 56.616 222.919 55.254 222.936 53.595C222.952 51.919 224.32 50.593 225.989 50.609C227.65 50.623 228.979 51.976 228.964 53.651Z" fill="white"/>
<path d="M218.248 50.017L229.196 50.118C231.241 50.399 233.15 50.97 234.904 51.747C232.69 50.539 230.147 49.592 227.374 49.222L216.43 49.122C216.43 49.122 218.963 58.111 227.43 61.679C220.42 57.704 218.248 50.017 218.248 50.017Z" fill="#26252E"/>
<path d="M7.24087 49.356C7.22475 51.018 5.8727 52.351 4.20962 52.335C2.5436 52.32 1.20278 50.961 1.21889 49.301C1.23257 47.639 2.60073 46.29 4.26577 46.306C5.92885 46.321 7.25551 47.694 7.24087 49.356Z" fill="white"/>
<path d="M81.0558 46.348C81.0455 47.325 80.2555 48.117 79.2706 48.107L72.5035 48.044C71.5255 48.035 70.7335 47.23 70.7438 46.253C70.7525 45.292 71.5577 44.49 72.5357 44.5L79.3038 44.563C80.2887 44.572 81.0636 45.386 81.0558 46.348Z" fill="#2B1E16"/>
<path d="M128.436 46.785C128.425 47.763 127.627 48.554 126.639 48.543L119.874 48.481C118.898 48.472 118.111 47.665 118.12 46.69C118.128 45.727 118.929 44.928 119.906 44.937L126.672 44.998C127.661 45.008 128.441 45.824 128.436 46.785Z" fill="#2B1E16"/>
<path d="M80.1734 45.643C80.1636 46.617 79.3687 47.403 78.3887 47.397L71.6114 47.333C70.6368 47.324 69.8516 46.522 69.8604 45.547C69.8707 44.567 70.6685 43.78 71.6436 43.789L78.4215 43.851C79.3995 43.86 80.1817 44.662 80.1734 45.643Z" fill="#E0E0E0"/>
<path d="M127.544 46.079C127.536 47.052 126.733 47.841 125.757 47.832L118.986 47.769C118.002 47.762 117.226 46.959 117.233 45.983C117.242 45.002 118.035 44.215 119.02 44.224L125.793 44.288C126.767 44.297 127.554 45.098 127.544 46.079Z" fill="#E0E0E0"/>
<path d="M115.858 78.26L86.4595 76.592L86.3975 76.114C84.6543 64.153 75.5703 54.36 63.7515 51.769L63.0317 51.612L70.7324 34.499L71.8267 34.986L64.7256 50.762C76.5098 53.658 85.5625 63.467 87.5137 75.464L114.628 76.989L113.999 39.095L115.204 39.075L115.858 78.26Z" fill="#DE9509"/>
<path d="M165.212 75.6135L164.358 74.7743L182.797 56.0097L181.95 40.1428L183.156 40.0847L184.02 56.473L165.212 75.6135Z" fill="#DE9509"/>
<path d="M189.035 49.155C187.624 49.143 186.483 47.976 186.496 46.568C186.51 45.147 187.669 44.003 189.084 44.016L194.819 44.068C196.237 44.082 197.381 45.246 197.37 46.667C197.356 48.077 196.19 49.22 194.772 49.207L189.035 49.155Z" fill="#DE9509"/>
<path d="M196.624 46.661C196.615 47.665 195.787 48.478 194.781 48.468L189.043 48.416C188.049 48.405 187.233 47.579 187.242 46.575C187.251 45.558 188.084 44.746 189.076 44.754L194.814 44.808C195.82 44.818 196.635 45.644 196.624 46.661Z" fill="#F9AC19"/>
<g style="mix-blend-mode:screen" opacity="0.2">
<path d="M175.765 36.666C171.991 32.818 166.267 27.017 165.527 26.413C165.266 26.184 164.959 25.932 164.632 25.641C161.778 23.169 156.48 18.577 144.103 15.554C139.497 14.427 132.484 13.784 123.859 13.705C123.375 13.702 122.897 13.696 122.406 13.701L154.689 36.471L175.765 36.666Z" fill="#242130"/>
</g>
<g style="mix-blend-mode:screen" opacity="0.2">
<path d="M113.532 13.852C109.119 14.02 104.751 14.29 100.894 14.657C98.1006 14.927 92.6084 16.787 88.7124 18.332L113.33 35.706L113.532 13.852Z" fill="#242130"/>
</g>
<path d="M43.7093 49.075C42.2845 48.555 40.5872 48.987 39.1834 49.417C37.4905 49.936 35.8621 50.676 34.2923 51.518C31.4354 53.064 28.8704 55.035 26.5784 57.333C24.7083 59.21 22.9451 61.229 21.4251 63.414C20.6932 64.476 20.0042 65.608 19.5203 66.819C19.1585 67.708 18.8016 68.79 19.1175 69.735C19.2186 70.044 19.6512 69.938 19.7044 69.665C19.9031 68.677 20.0765 67.777 20.4993 66.86C21.0223 65.735 21.7386 64.698 22.4764 63.703C23.9544 61.725 25.6653 59.913 27.4725 58.234C29.6512 56.215 32.0306 54.444 34.6585 53.032C36.0784 52.283 37.5692 51.641 39.1004 51.134C40.5814 50.645 42.3265 50.455 43.7132 49.669C43.9305 49.553 44.0042 49.185 43.7093 49.075Z" fill="#DE9509"/>
<path d="M231.084 70.84C230.619 69.717 229.973 68.685 229.27 67.706C227.757 65.624 225.806 63.856 223.769 62.294C221.66 60.699 219.308 59.393 216.925 58.242C214.918 57.272 212.704 56.212 210.453 55.967C210.271 55.947 210.226 56.173 210.379 56.25C212.271 57.256 214.296 57.984 216.2 58.973C218.472 60.145 220.587 61.554 222.637 63.071C224.631 64.55 226.479 66.236 227.991 68.206C228.667 69.093 229.248 70.033 229.714 71.03C230.164 71.988 230.293 73.132 230.953 73.966C231.115 74.179 231.47 74.15 231.56 73.885C231.936 72.867 231.491 71.792 231.084 70.84Z" fill="#DE9509"/>
</svg>
