<svg width="19" height="19" viewBox="0 0 19 19" fill="none" xmlns="http://www.w3.org/2000/svg">
<path d="M18.2728 16.8696L13.9539 12.5507C15.0249 11.2457 15.6699 9.57361 15.6699 7.75165C15.6699 3.57166 12.2788 0.180664 8.09888 0.180664C3.91589 0.180664 0.527832 3.57166 0.527832 7.75165C0.527832 11.9307 3.91589 15.3226 8.09888 15.3226C9.9209 15.3226 11.5889 14.6807 12.8949 13.6107L17.2129 17.9257C17.5068 18.2186 17.9799 18.2186 18.2728 17.9257C18.5659 17.6356 18.5659 17.1586 18.2728 16.8696ZM8.09888 13.8156C4.75183 13.8156 2.03088 11.0947 2.03088 7.75165C2.03088 4.40765 4.75183 1.68365 8.09888 1.68365C11.4429 1.68365 14.1669 4.40765 14.1669 7.75165C14.1669 11.0947 11.4429 13.8156 8.09888 13.8156Z" fill="#F9AC19"/>
</svg>
