<svg width="39" height="39" viewBox="0 0 39 39" fill="none" xmlns="http://www.w3.org/2000/svg">
<circle cx="19.5" cy="19.5436" r="19.2275" fill="#55ACEE"/>
<path d="M31.277 14.1339C30.453 14.4999 29.567 14.7469 28.638 14.8569C29.587 14.2889 30.315 13.3889 30.659 12.3149C29.771 12.8419 28.787 13.2239 27.74 13.4299C26.902 12.5369 25.707 11.9789 24.385 11.9789C21.847 11.9789 19.789 14.0369 19.789 16.5749C19.789 16.9349 19.83 17.2859 19.909 17.6229C16.089 17.4308 12.702 15.6009 10.435 12.8199C10.04 13.4989 9.81299 14.2889 9.81299 15.1309C9.81299 16.7249 10.625 18.1319 11.857 18.9559C11.104 18.9329 10.395 18.7259 9.776 18.3809L9.77496 18.4389C9.77496 20.6659 11.36 22.5229 13.462 22.9449C13.077 23.0509 12.67 23.1069 12.252 23.1069C11.955 23.1069 11.667 23.0779 11.387 23.0249C11.972 24.8499 13.669 26.1789 15.68 26.2159C14.107 27.4489 12.126 28.1839 9.97198 28.1839C9.60199 28.1839 9.23499 28.1619 8.87598 28.1189C10.909 29.4239 13.325 30.1839 15.921 30.1839C24.374 30.1839 28.997 23.1808 28.997 17.1069C28.997 16.9079 28.993 16.7099 28.984 16.5129C29.882 15.8649 30.662 15.0558 31.277 14.1339Z" fill="#F1F2F2"/>
</svg>
