<svg width="17" height="17" viewBox="0 0 17 17" fill="none" xmlns="http://www.w3.org/2000/svg">
<path d="M14.6499 3.18005V0.809082H0.131836V14.735H2.20593V16.8091H16.4279V3.18005H14.6499ZM0.723877 14.1431V1.40204H14.0579V3.18005H2.20593V14.1431H0.723877ZM15.8348 16.217H2.79785V14.735V3.77203H14.6499H15.8348V16.217Z" fill="#F9AC19"/>
<path d="M13.2037 8.86639H10.2407V5.90338C10.2407 5.73938 10.1086 5.60742 9.9447 5.60742C9.78064 5.60742 9.64868 5.73938 9.64868 5.90338V8.86639H6.68567C6.52173 8.86639 6.38867 8.99939 6.38867 9.16241C6.38867 9.32642 6.52173 9.45941 6.68567 9.45941H9.64868V12.4224C9.64868 12.5864 9.78064 12.7184 9.9447 12.7184C10.1086 12.7184 10.2407 12.5864 10.2407 12.4224V9.45941H13.2037C13.3677 9.45941 13.4996 9.32642 13.4996 9.16241C13.4996 8.99939 13.3677 8.86639 13.2037 8.86639Z" fill="#F9AC19"/>
</svg>
